<?xml version="1.0" encoding="UTF-8"?>
<svg id="Layer_2" data-name="Layer 2" xmlns="http://www.w3.org/2000/svg" viewBox="0 0 210.66 160.28">
  <defs>
    <style>
      .cls-1 {
        fill: #82b97a;
      }

      .cls-2 {
        fill: #53784e;
      }

      .cls-3 {
        fill: #b3a133;
      }

      .cls-4 {
        fill: #65925e;
      }

      .cls-5 {
        fill: #f5df3c;
      }

      .cls-6 {
        fill: #e7d147;
      }

      .cls-7 {
        fill: #645b2f;
      }

      .cls-8 {
        fill: #a89833;
      }

      .cls-9 {
        fill: #7baf73;
      }

      .cls-10 {
        fill: #6e9d67;
      }

      .cls-11 {
        fill: #42593e;
      }

      .cls-12 {
        fill: #4e7148;
      }

      .cls-13 {
        fill: #a4d293;
      }

      .cls-14 {
        fill: #5c8456;
      }

      .cls-15 {
        fill: #3c5637;
      }

      .cls-16 {
        fill: #dcc52f;
      }

      .cls-17 {
        fill: #a19233;
      }

      .cls-18 {
        fill: #938532;
      }

      .cls-19 {
        fill: #d3bd2b;
      }

      .cls-20 {
        fill: #4d5f49;
      }

      .cls-21 {
        fill: #9cd08e;
      }

      .cls-22 {
        fill: #7f732e;
      }

      .cls-23 {
        fill: #e1ca24;
      }

      .cls-24 {
        fill: #c4b030;
      }

      .cls-25 {
        fill: #75a66d;
      }

      .cls-26 {
        fill: #ecd52f;
      }

      .cls-27 {
        fill: #90ca86;
      }

      .cls-28 {
        fill: #87bc7f;
      }

      .cls-29 {
        fill: #5f5624;
      }

      .cls-30 {
        fill: #f4dc2b;
      }
    </style>
  </defs>
  <g id="Layer_1-2" data-name="Layer 1">
    <g>
      <path class="cls-26" d="M98.29,.69c1.78,0,3.57-.16,5.31-.33,1.89-.19,3.79-.28,5.68-.34,2.39-.07,4.78,.02,7.17,.04,1.03,.45,2.12,.1,3.18,.22,.94,.11,2.21-.13,2.77,.39,1.16,1.09,2.35,1.91,3.8,2.6,2.05,.97,3.83,2.51,6.08,3.13,.29,.08,.46,.3,.58,.57,.16,.36,.44,.58,.79,.67,2.92,.79,5.05,3.07,7.83,4.13,.2,.08,.36,.18,.31,.43-.05,.24-.27,.25-.45,.33-.77,.34-1.58,.14-2.37,.2-.4,0-.79,0-1.19,0h-.49c-1.04-.25-1.9,.51-2.91,.49-4.5-.07-8.96,.36-13.42,.92-5.59,.7-11.11,1.74-16.59,3.06-4.68,1.13-9.24,2.62-13.78,4.23-3.5,1.24-6.88,2.74-10.23,4.3-2.85,1.33-5.63,2.82-8.27,4.52-2.03,1.31-4.22,2.34-6.14,3.89-1.45,1.17-2.76,2.53-4.27,3.58-1.65,1.15-2.83,2.65-4.06,4.15-.27,.32-.78,.81-.47,1.11,.34,.33,.98,.51,1.56,.36,.23-.06,.44-.18,.65-.3,.66-.36,1.29-.81,1.99-1.09,3.11-1.26,5.89-3.13,8.91-4.56,2.95-1.39,5.84-2.89,8.86-4.12,3.34-1.36,6.73-2.58,10.14-3.77,5.63-1.97,11.37-3.53,17.2-4.77,3.99-.85,8.03-1.42,12.07-2.02,3.7-.55,7.41-.84,11.12-1.05,3.12-.18,6.26-.21,9.4-.1,3.81,.13,7.61,.32,11.41,.73,4.9,.53,9.71,1.43,14.5,2.58,6.85,1.65,13.32,4.28,19.49,7.63,5.02,2.72,9.53,6.12,13.35,10.41,4.2,4.73,7.15,10.08,8.55,16.28,.79,3.49,.89,7.07,1.39,10.59,.04,.29-.16,.74,.28,.8,.36,.05,.42-.41,.6-.66,.33-.47,.45-1.15,1.23-1.14-.25,.61-.22,1.24-.17,1.88,0,0-.03,.07-.03,.07-1,2.28-1.6,4.67-2.13,7.09,.01,.05,0,.09-.05,.11-.2,.08-.21,.24-.19,.42,0,0-.02,.05-.02,.05-.28,.14-.25,.38-.22,.62,.01,.05,0,.09-.05,.11-.19,.07-.21,.22-.19,.4,0,0-.04,.07-.04,.07-.73,.68-1.16,1.5-1.16,2.52,0,.06-.01,.1-.06,.12-.58,.04-.43,.47-.42,.81,0,.07-.03,.13-.08,.17-.17,.04-.19,.15-.16,.3,0,.07-.03,.12-.08,.16-.48,0-.41,.35-.4,.65,0,0-.03,.04-.03,.04-.08-.02-.15-.02-.23-.01-.56,0-.85,.44-1.14,.8-3.41,4.27-7.12,8.23-11.18,11.91-4.31,3.91-8.86,7.51-13.72,10.67-4.93,3.21-10.07,6.06-15.44,8.52-3.37,1.54-6.77,2.98-10.23,4.26-5.36,1.98-10.81,3.73-16.41,4.94-2.47,.53-4.68,1.78-7.05,2.58-1.62,.55-2.04,1.21-2.02,2.91,.01,.76,.29,1.12,1.05,1.1-.02,.06-.02,.13-.02,.2-.33,.16-.29,.46-.28,.75,0,0,0-.01,0-.01-.08,.08-.17,.17-.25,.25,0,0,.01,0,.01,0-.19,.06-.41,.07-.55,.18-1.9,1.63-3.8,3.26-5.67,4.92-3.07,2.73-6.45,5.02-9.96,7.16-2.62,1.59-5.5,2.83-7.53,5.27-.15,.18-.31,.38-.62,.3-.29-.43,.02-.77,.24-1.06,.75-.98,1.34-2.05,1.95-3.12,2.79-4.88,4.69-10.1,6.15-15.5,.18-.68,.03-.98-.66-1.05-1.46-.15-2.92-.28-4.37-.48-3.72-.51-7.47-.12-11.21-.41-2.53-.2-5.09-.27-7.6-.6-4.75-.62-9.49-1.35-14.13-2.6-5.97-1.61-11.79-3.57-17.28-6.45-3.96-2.07-7.7-4.44-11.11-7.37-4.53-3.9-8.2-8.4-10.66-13.89-3.05-6.77-3.58-13.82-2.29-21,1.35-7.53,3.94-14.64,7.91-21.23,2.41-4,5.27-7.66,8.47-11.04,2.59-2.74,5.46-5.2,8.44-7.53,3.57-2.79,7.25-5.4,11.24-7.55,3.04-1.64,6.12-3.21,9.22-4.73,3.97-1.95,8.07-3.56,12.18-5.16,.72-.28,1.69-.22,2.11-1.11,1.9-.56,3.79-1.17,5.7-1.66,6.45-1.65,13-2.83,19.59-3.83,.48-.07,.87-.14,1-.64,.15-.54-.23-.81-.62-1.03-.93-.53-1.89-1-2.8-1.55-.47-.29-.82-.95-1.29-1.02-2.88-.45-4.68-2.92-7.36-3.84-1.81-.62-3.19-2.36-5.23-2.74-.36-.07-.29-.46-.48-.62-.66-.52-.76-1.76-1.98-1.57Z"/>
      <path class="cls-29" d="M44.01,121.51c-.09,.02-.16-.01-.2-.09-.08-.05-.15-.11-.23-.16,0,0,0,0,0,0-.09-.2-.25-.25-.44-.25,0,0-.03-.01-.03-.01-.15-.65-.67-.68-1.2-.69,0,0-.01,0-.01,0,0-.37-.23-.54-.51-.74-4.69-3.36-8.86-7.24-12.18-12-.48-.69-1.03-1.37-1.74-1.94-1.64-1.3-3.6-2.02-5.36-3.08-3.71-2.24-7.52-4.33-11.29-6.47-1.51-.85-2.93-1.9-4.64-2.35,0,0,0,0,0,0-.06-.09-.13-.18-.19-.27,0,0-.02-.03-.02-.03,0-.19-.06-.35-.25-.44-2.66-4-4.34-8.41-5.13-13.12-1.99-11.88,1.29-22.53,7.78-32.4,.44,.18,.9,.32,1.31,.55,5.39,3.04,10.79,6.07,16.15,9.15,1.64,.94,3.39,1.72,4.82,2.99-.99,2.08-2.35,3.99-3,6.24-1.77,6.11-3.36,12.24-2.79,18.72,.16,1.86,.26,3.74,.62,5.55,1.09,5.61,3.28,10.79,6.49,15.53,2.81,4.16,6.27,7.7,10.16,10.85,4.55,3.69,9.58,6.61,14.92,8.93,6.88,2.99,14.05,5.1,21.45,6.38,5.6,.98,11.23,1.65,16.91,1.81,2.08,.06,4.16-.03,6.23,.05,.72,.03,1.59-.15,2.1,.66-.47,.05-.75,.35-.96,.74-.32,.15-.39,.44-.49,.76-1.11,3.49-2.69,6.74-4.81,9.75-.77,1.09-1.64,2.13-2.12,3.4-.35,.38-.39,1-.96,1.2-1.93-.97-3.85-.65-5.78-.01-.26,.09-.42,.19-.46,.46-.24,0-.48,.01-.72,.02-.38-.36-.62-.28-.71,.23-.08,.01-.16,.02-.23,.03-.58,.11-1.31-.37-1.72,.43-.07,0-.14,.01-.2,.03-.4,0-.8,.01-1.2,.02-.17-.26-.33-.25-.48,.02-.32,.08-.64,.16-.96,.24-.24,0-.48,0-.71,.01-.73,0-1.47-.21-2.16,.18-.32,.02-.64,.03-.96,.05-1.67-.05-3.33-.11-4.86,.75-3.08-1.76-6.16-3.53-9.25-5.26-.85-.48-.75-.83-.04-1.35,4.33-3.19,7.47-7.38,9.97-12.09,.72-1.36,.68-1.43-.82-1.75-7.67-1.62-15.12-3.94-22.19-7.38-.54-.26-1.05-.57-1.57-.86-.07-.04-.14-.09-.22-.13,0,0-.01,0-.01,0-.09-.19-.26-.24-.45-.24,0,0-.03-.01-.03-.01-.09-.18-.24-.23-.42-.24,0,0-.05-.02-.05-.02-.1-.06-.2-.12-.3-.18-.08,.02-.15,0-.19-.08-.09-.05-.19-.11-.28-.16-.09,.02-.15-.01-.2-.09-.08-.05-.16-.11-.23-.16,0,0,0,0,0,0-.09-.2-.25-.25-.45-.25,0,0-.02-.01-.02-.01-.08-.18-.24-.23-.42-.24,0,0-.05-.02-.05-.02-.1-.06-.2-.12-.3-.17-.09,.02-.15-.01-.19-.09-.08-.06-.16-.11-.24-.17,0,0,0,0,0,0-.09-.2-.25-.25-.45-.25,0,0-.02-.01-.02-.01-.08-.18-.24-.23-.42-.24,0,0-.06-.03-.06-.03-.1-.06-.19-.12-.29-.17Z"/>
      <path class="cls-16" d="M98.29,.69c1.22-.19,1.31,1.05,1.98,1.57,.19,.15,.12,.55,.48,.62,2.04,.38,3.42,2.12,5.23,2.74,2.68,.92,4.47,3.38,7.36,3.84,.47,.07,.82,.73,1.29,1.02,.91,.56,1.87,1.03,2.8,1.55,.39,.22,.77,.49,.62,1.03-.14,.51-.52,.57-1,.64-6.58,1-13.13,2.18-19.59,3.83-1.92,.49-3.8,1.1-5.7,1.66-2.37,.77-4.77,1.45-7.12,2.31-1.86,.68-3.63,1.59-5.58,2,.09-.65-.37-.86-.83-1.15-1.2-.77-2.57-1.18-3.78-1.96-1.56-.99-3.09-2.05-4.85-2.7-.59-.22-1.15-.48-1.69-.85-1.61-1.11-3.27-2.16-4.97-3.12-1.33-.76-2.74-1.38-4.13-2.01-.55-.25-.65-.64-.59-1.15,.19-.09,.37-.2,.42-.44,.04-.05,.1-.07,.16-.06,.41,.04,.83,.09,1.03-.41,.05-.05,.1-.07,.17-.06,.22,.03,.44,.05,.55-.2,.02-.05,.06-.07,.12-.05,.42,.05,.86,.12,1.07-.39,.05-.05,.11-.07,.18-.06,.21,.02,.42,.05,.55-.19,.04-.05,.09-.07,.16-.05,.22,.02,.44,.06,.56-.2,.04-.05,.09-.07,.15-.05,1.24-.12,2.39-.49,3.45-1.14,.04-.05,.09-.07,.15-.05,.22,.03,.44,.07,.57-.19,.04-.05,.09-.06,.15-.05,.21,.02,.43,.07,.56-.18,.05-.05,.11-.07,.17-.06,.21,.03,.42,.07,.54-.17,.06-.05,.12-.07,.2-.07,.55,.04,1.09,.06,1.48-.42,.05-.05,.11-.07,.17-.06,.55,.05,1.1,.07,1.5-.42,.05-.05,.1-.07,.17-.06,1.2-.08,2.37-.25,3.42-.9,.05-.05,.1-.07,.17-.06,.28,.01,.58,.13,.79-.19,.05-.05,.1-.07,.17-.05,.28,.01,.58,.12,.79-.18,.05-.05,.11-.07,.17-.06,.71,.06,1.39,.03,1.99-.43,.04-.05,.1-.07,.16-.05,.29,.02,.59,.11,.81-.17,.12-.02,.24-.05,.36-.07,.13,0,.26,0,.39,0,5.48-1.24,11-2.28,16.61-2.67Z"/>
      <path class="cls-19" d="M58.21,10.56c-.06,.51,.04,.9,.59,1.15,1.4,.63,2.8,1.25,4.13,2.01,1.7,.97,3.36,2.02,4.97,3.12,.54,.37,1.09,.64,1.69,.85,1.76,.65,3.29,1.71,4.85,2.7,1.21,.77,2.58,1.18,3.78,1.96,.45,.29,.92,.5,.83,1.15-1.88,1.02-3.89,1.78-5.82,2.7-2.41,1.14-4.91,2.17-7.12,3.64-1.97,1.31-3.87,2.77-5.85,4.08-3.69,2.43-7.23,5.08-10.49,8.03-4.97,4.49-9.43,9.46-12.93,15.23-4.17,6.89-6.62,14.35-7.36,22.33-.34,3.64-.13,7.33,.49,10.94,.85,5.04,2.79,9.73,5.61,13.96,3.7,5.55,8.53,10.04,14.14,13.65,5.62,3.62,11.7,6.29,18.06,8.32,8.16,2.61,16.56,4.06,25.09,4.64,5.1,.35,10.24,.24,15.33,.89,.27,.03,.61-.12,.69,.22,.11,.43-.36,.44-.6,.61-.38-.33-.84-.45-1.32-.47-1.95-.09-3.91-.21-5.86-.24-3.66-.04-7.31-.06-10.97-.44-3.98-.42-7.94-.96-11.88-1.68-8.69-1.61-16.99-4.38-24.77-8.56-6.1-3.27-11.56-7.42-16.02-12.77-4.69-5.62-7.63-12.02-8.8-19.28-.66-4.1-.62-8.16-.18-12.25,.41-3.85,1.47-7.54,2.82-11.17,1.59-4.29,3.83-8.22,6.42-11.93,3.57-5.12,8.02-9.46,12.66-13.6,.58-.52,.83-1.25,1.46-1.7,2.68-1.93,5.41-3.78,8.2-5.54,.48-.3,.99-.59,1.01-1.23,.03-.69-.6-.76-1.04-1-2.18-1.21-4.42-2.32-6.53-3.64-1.88-1.17-3.73-2.4-5.8-3.21-.65-.25-1.25-.56-1.75-.99-1.05-.89-2.3-1.39-3.45-2.08-.85-.52-2.32-.52-2.28-2.07,4.04-2.53,8.34-4.56,12.71-6.43,1.14-.49,2.28-.97,3.42-1.46,.15,.04,.29,.05,.35-.14,.07-.03,.15-.06,.22-.09,.2,.03,.41,.06,.51-.19,.05-.05,.1-.08,.17-.07,.21,0,.42,.02,.63,.03Z"/>
      <path class="cls-24" d="M40.2,18.91c-.04,1.54,1.43,1.55,2.28,2.07,1.15,.69,2.4,1.2,3.45,2.08,.51,.43,1.11,.74,1.75,.99,2.07,.81,3.92,2.03,5.8,3.21,2.11,1.32,4.35,2.43,6.53,3.64,.43,.24,1.06,.32,1.04,1-.03,.64-.54,.93-1.01,1.23-2.79,1.76-5.52,3.61-8.2,5.54-.63,.45-.88,1.18-1.46,1.7-4.64,4.14-9.09,8.48-12.66,13.6-2.59,3.72-4.83,7.65-6.42,11.93-1.35,3.63-2.41,7.32-2.82,11.17-.44,4.08-.48,8.15,.18,12.25,1.17,7.26,4.11,13.66,8.8,19.28,4.46,5.35,9.93,9.5,16.02,12.77,7.78,4.17,16.08,6.95,24.77,8.56,3.94,.73,7.89,1.26,11.88,1.68,3.66,.39,7.31,.4,10.97,.44,1.95,.02,3.91,.14,5.86,.24,.48,.02,.94,.13,1.32,.47-.24,.16-.48,.32-.72,.48-.24,.08-.49,.16-.73,.23-1.97-.55-4.01-.17-6.01-.41-2.72-.32-5.48-.07-8.24-.24-3.97-.25-7.92-.66-11.82-1.32-7.29-1.24-14.41-3.15-21.23-6.07-1.63-.7-3.29-1.34-4.93-2.01-.01-.31-.17-.47-.49-.47-.33-.14-.54-.51-.96-.48-.39-.61-1.03-.79-1.68-.96-.1-.19-.28-.24-.48-.24-.52-.6-1.13-1.04-1.92-1.2-.1-.19-.28-.23-.48-.24-.13-.32-.37-.48-.72-.48-.38-.05-.71-.17-.95-.48-.27-.82-.96-1.14-1.68-1.43h0c-.18-.44-.54-.51-.95-.48h0c-.04-.62-.44-.74-.96-.72-.16-.24-.32-.47-.49-.71-.13-.32-.37-.48-.72-.48-.31-.49-.71-.89-1.2-1.2-.33-.53-.7-1.02-1.43-.97-.2-.35-.29-.78-.72-.95-.07-.57-.39-.89-.96-.96-.49-.31-.89-.71-1.2-1.2,.02-.67-.27-1.1-.96-1.2,0-.08,0-.16,0-.24-.02-.46-.26-.7-.72-.72h0c.06-.58-.23-.95-.72-1.2-.16-.24-.32-.48-.48-.72,0-.35-.16-.59-.48-.72h0c0-.31-.16-.47-.47-.48,0-.08,0-.16,0-.24,0-.35-.16-.59-.48-.72h0c-.08-.49-.23-.95-.72-1.2,0-.08,0-.16,0-.24-.46-1.09-.73-2.29-1.67-3.12,0-.08,0-.16,0-.24,.04-.37-.14-.69-.26-1.03-.6-1.8-1.32-3.56-1.66-5.44-.45-2.45-.9-4.88-1.02-7.39-.09-1.94-.12-3.85,0-5.79,.13-2.02,.67-3.97,.77-5.99,0-.16,0-.32,0-.48,.66-.49,.46-1.3,.68-1.95,.62-1.81,1.15-3.65,1.72-5.48,0-.16,0-.32,0-.47,.76-.52,.9-1.38,1.19-2.16,.14-.33,.51-.54,.48-.96,.2-.1,.24-.28,.24-.48,0-.16,0-.31,0-.47,.48-.03,.48-.38,.47-.72,0-.08,0-.16,0-.23,.31-.02,.47-.18,.47-.49h0c.38-.21,.7-.47,.71-.96,.38-1.07,1.02-1.97,1.68-2.87,1.2-1.08,1.99-2.49,2.96-3.75,.47-.61,1.12-1.12,1.11-2h0c.32,0,.48-.16,.48-.48,.17-.52,.56-.86,.96-1.2,1.29-.95,2.2-2.27,3.36-3.35,1.75-1.04,3.06-2.62,4.66-3.86,.68-.53,.11-.89-.34-1.16-2.09-1.26-4.17-2.55-6.3-3.75-4.55-2.56-9.04-5.24-13.71-7.6-.54-.27-.69-.73-.59-1.3,3.52-2.84,7.33-5.25,11.22-7.55,.3-.18,.63-.31,.95-.47Z"/>
      <path class="cls-23" d="M107.57,133.23c.24-.16,.48-.32,.72-.48,.24-.17,.7-.18,.6-.61-.08-.34-.42-.19-.69-.22-5.09-.65-10.23-.54-15.33-.89-8.53-.58-16.93-2.03-25.09-4.64-6.35-2.03-12.44-4.7-18.06-8.32-5.6-3.61-10.43-8.1-14.14-13.65-2.82-4.23-4.76-8.92-5.61-13.96-.61-3.61-.83-7.3-.49-10.94,.75-7.98,3.19-15.44,7.36-22.33,3.5-5.78,7.96-10.75,12.93-15.23,3.26-2.95,6.8-5.59,10.49-8.03,1.98-1.3,3.88-2.77,5.85-4.08,2.21-1.47,4.71-2.49,7.12-3.64,1.93-.92,3.94-1.68,5.82-2.7,1.95-.41,3.73-1.32,5.58-2,2.35-.86,4.74-1.55,7.12-2.31-.42,.89-1.39,.83-2.11,1.11-4.11,1.6-8.21,3.21-12.18,5.16-3.11,1.52-6.18,3.09-9.22,4.73-3.99,2.15-7.67,4.76-11.24,7.55-2.98,2.33-5.84,4.79-8.44,7.53-3.2,3.38-6.06,7.04-8.47,11.04-3.97,6.59-6.56,13.7-7.91,21.23-1.29,7.18-.75,14.23,2.29,21,2.47,5.48,6.13,9.99,10.66,13.89,3.4,2.93,7.15,5.3,11.11,7.37,5.49,2.88,11.32,4.84,17.28,6.45,4.64,1.25,9.39,1.98,14.13,2.6,2.51,.33,5.07,.4,7.6,.6,3.74,.29,7.49-.09,11.21,.41,1.45,.2,2.91,.33,4.37,.48,.69,.07,.85,.36,.66,1.05-1.46,5.4-3.36,10.62-6.15,15.5-.61,1.07-1.2,2.14-1.95,3.12-.22,.29-.54,.63-.24,1.06,.31,.08,.47-.12,.62-.3,2.03-2.44,4.91-3.68,7.53-5.27,3.5-2.13,6.88-4.43,9.96-7.16,1.87-1.66,3.77-3.29,5.67-4.92,.14-.12,.36-.12,.55-.18-.08,.57-.37,1.01-.78,1.4-.07,.15-.14,.31-.2,.46,0,0-.02,.04-.02,.04-.46,.03-.46,.36-.45,.69,0,0-.02,.03-.02,.03-.47,.02-.47,.36-.46,.69,0,0-.02,.03-.02,.03-.6,.04-.73,.43-.7,.93,0,0-.02,.03-.02,.03-.59,.04-.73,.41-.7,.92,0,0-.04,.05-.04,.05-.07,.07-.13,.14-.2,.22,0,0-.02,.02-.02,.02-.42-.03-.65,.28-.88,.54-2.17,2.36-4.87,4.05-7.41,5.95-2.94,2.19-6.25,3.73-9.45,5.47-.79,.43-1.65,.71-2.4,1.28-.57,.43-1.48-.1-2.12,.63-.86,1-2.09,1.54-3.2,2.24-.35,.22-.82,.36-.91,.88-1.81,.69-3.35,1.95-5.24,2.49-.06-.52,.36-.76,.64-1.09,.85-1.02,2.04-1.64,3.01-2.52,3.98-3.61,6.92-7.93,9.2-12.78,1.3-2.76,2.1-5.61,2.46-8.6Z"/>
      <path class="cls-5" d="M182.32,22.8c9.42,4.49,17.18,10.9,22.77,19.79,.21,.33,.35,.71,.53,1.06,.04,.06,.08,.12,.13,.18,.06,.04,.08,.1,.09,.17,.06,.1,.12,.21,.18,.31,.05,.03,.07,.08,.07,.13,0,.15,0,.29,.19,.35,.05,.03,.07,.07,.06,.12-.02,.16,0,.3,.18,.36,.05,.03,.07,.07,.06,.12-.02,.16,0,.3,.18,.36,.05,.03,.07,.07,.06,.12-.03,.44-.06,.89,.47,1.1,0,0,.02,.04,.02,.04-.02,.19,0,.35,.2,.44,0,0,.03,.07,.03,.07-.04,.45,.09,.84,.45,1.13,0,0,.03,.07,.03,.07,.06,.14,.12,.29,.17,.43,.03,.08,.05,.16,.08,.25,.17,1.68,.84,3.21,1.41,4.77,0,0,.01,.05,.01,.05-.12,1.38,.52,2.67,.46,4.04-.52-.06-.41-.47-.48-.82-.19-1.01-.28-2.05-.81-2.97-.95-1.65-1.88-3.32-2.84-4.97-2.28-3.94-5.06-7.5-8.34-10.66-2.49-2.4-5.19-4.54-8.08-6.46-3.8-2.52-7.84-4.54-12.01-6.36-4.94-2.16-10.1-3.62-15.31-4.89-4.2-1.02-8.46-1.67-12.75-2.24-4.41-.58-8.84-.97-13.26-1.07-4.26-.1-8.52-.31-12.78-.3-.35,0-.83,.06-.9-.37-.08-.47,.42-.5,.75-.58,1.04-.25,2.08-.51,3.12-.73,2.68-.56,5.41-.76,8.12-1.07,2.77-.32,5.56-.2,8.33-.27,3.75-.1,7.52,.39,11.28,.61,.31,.02,.72,.18,.96-.24-.23-.44-1.05,.03-1.07-.71,1.43,.07,2.81,.45,4.21,.69,6.76,1.15,13.26,3.17,19.59,5.79,.83,.34,1.59,.93,2.55,.94,0,0,.03,.02,.03,.02,.08,.2,.25,.24,.44,.23,0,0,.03,.02,.03,.02,.22,.67,.88,.71,1.4,.96Z"/>
      <path class="cls-6" d="M180.42,21.58c-.96,0-1.72-.59-2.55-.94-6.33-2.62-12.83-4.64-19.59-5.79-1.4-.24-2.78-.62-4.21-.69-.74,.11-1.44-.19-2.16-.24-.17-.28-.46-.23-.72-.24-3.85-.02-7.68-.64-11.54-.48-.35,.01-.64-.06-.69-.48,.79-.05,1.6,.15,2.37-.2,.18-.08,.4-.09,.45-.33,.05-.24-.11-.35-.31-.43-2.78-1.06-4.91-3.34-7.83-4.13-.36-.1-.64-.32-.79-.67-.12-.26-.29-.49-.58-.57-2.25-.62-4.03-2.16-6.08-3.13-1.46-.69-2.64-1.51-3.8-2.6-.55-.52-1.82-.28-2.77-.39-1.06-.12-2.14,.24-3.18-.22,2.57-.01,5.12,.27,7.68,.48,2.64,.22,5.28,.49,7.9,.88,12.08,1.78,23.41,5.67,33.93,11.91,3.56,2.11,7.26,4,10.81,6.14,1.21,.73,2.6,1.14,3.67,2.1Z"/>
      <path class="cls-23" d="M128.02,132.06c-.76,.02-1.04-.34-1.05-1.1-.02-1.7,.4-2.36,2.02-2.91,2.37-.81,4.58-2.05,7.05-2.58,5.6-1.21,11.04-2.96,16.41-4.94,3.46-1.28,6.87-2.72,10.23-4.26,5.36-2.46,10.51-5.31,15.44-8.52,4.86-3.17,9.41-6.77,13.72-10.67,4.05-3.67,7.77-7.64,11.18-11.91,.29-.36,.58-.79,1.14-.8,0,.09,.02,.17,.03,.26-.51,1.41-1.4,2.6-2.27,3.8-.05,.07-.1,.13-.14,.2,0,0-.04,.05-.04,.05-.45,.02-.46,.34-.45,.68,0,0-.04,.05-.03,.05-.07,.07-.13,.15-.2,.22,0,0-.01,.01-.01,.01-.48,.01-.49,.35-.47,.69,0,0-.02,.02-.02,.02-.46,.01-.48,.33-.46,.67,0,0-.04,.06-.04,.06-.06,.07-.13,.14-.19,.22,0,0-.01,.02-.01,.02-.46,0-.49,.32-.47,.67,0,0-.04,.06-.04,.06-.06,.07-.13,.14-.19,.21,0,0-.02,.02-.02,.02-.6,.03-.74,.42-.7,.93,0,0-.02,.03-.02,.03-.07,.07-.14,.15-.21,.22,0,0-.01,.02-.01,.02-.68,.09-.97,.51-.95,1.17,0,0-.02,.03-.02,.03-.07,.08-.14,.15-.21,.23,0,0-.01,.01-.01,.01-.89,.34-1.55,.87-1.67,1.89,0,0-.02,.02-.02,.02-.07,.07-.14,.15-.22,.22,0,0-.02,.02-.02,.02-.07,.08-.15,.15-.22,.23h0c-.08,.09-.15,.17-.23,.24,0,0,0,0,0,0-.42-.04-.62,.29-.9,.52-3.31,2.72-6.54,5.55-9.96,8.14-5.29,4-11.06,7.21-16.93,10.23-3.65,1.87-7.41,3.5-11.25,4.98-3.41,1.31-6.83,2.6-10.32,3.66-5.45,1.66-11.06,2.82-16.3,5.15-.42,.19-.89,.27-.47,.87-.06,.34-.13,.69-.19,1.03,0,0,.03-.02,.03-.02-.09-.02-.18-.03-.27-.05Z"/>
      <path class="cls-3" d="M28.03,26.92c-.1,.57,.05,1.03,.59,1.3,4.66,2.36,9.15,5.04,13.71,7.6,2.13,1.2,4.21,2.49,6.3,3.75,.45,.27,1.02,.63,.34,1.16-1.6,1.24-2.91,2.81-4.66,3.86-.53-.5-1.25-.68-1.84-1.07-3.09-2.03-6.41-3.66-9.57-5.56-2.92-1.76-5.96-3.31-8.94-4.99-.63-.35-1.41-.62-1.48-1.54,0,0,.04-.04,.04-.04,.06-.05,.12-.11,.17-.17,1.67-1.57,3.43-3.02,5.33-4.31Z"/>
      <path class="cls-18" d="M12.16,42.15c1.3-1.78,2.75-3.43,4.34-4.96-.08,1,.79,1.25,1.39,1.6,5.63,3.21,11.3,6.35,16.91,9.59,1.19,.69,2.58,1.08,3.51,2.2-.56,.72-1.12,1.43-1.68,2.15-.31,.02-.46,.18-.47,.49h0c-.91,.38-1,1.55-1.9,1.93-.29-.5-.71-.83-1.22-1.1-1.08-.58-2.17-1.15-3.22-1.78-5.81-3.5-11.9-6.52-17.66-10.11Z"/>
      <path class="cls-7" d="M6.17,93.72c1.72,.45,3.13,1.49,4.64,2.35,3.77,2.14,7.58,4.23,11.29,6.47,1.77,1.06,3.72,1.78,5.36,3.08,.71,.56,1.26,1.25,1.74,1.94,3.32,4.76,7.49,8.64,12.18,12,.28,.2,.52,.37,.51,.74-3.66-1.86-7.14-4.02-10.71-6.05-5.47-3.12-11.08-6.02-15.88-10.18-3.51-3.04-6.75-6.31-9.14-10.34Z"/>
      <path class="cls-8" d="M22.48,31.44c.07,.92,.86,1.18,1.48,1.54,2.97,1.67,6.02,3.22,8.94,4.99,3.16,1.91,6.48,3.53,9.57,5.56,.59,.39,1.31,.56,1.84,1.07-1.16,1.08-2.08,2.4-3.36,3.35-.12-.78-.74-1.1-1.35-1.39-1.36-.64-2.64-1.45-3.94-2.18-3.01-1.69-5.96-3.48-9-5.13-2.22-1.21-4.4-2.51-6.6-3.77-.45-.26-.73-.61-.69-1.15,0,0,.04-.04,.04-.04,.06-.06,.13-.13,.19-.19,0,0,.05-.05,.05-.05,.06-.06,.13-.12,.19-.19,0,0,.05-.05,.05-.05,.06-.06,.12-.12,.18-.18,0,0,.07-.06,.07-.06,.06-.06,.12-.11,.17-.17,0,0,.01-.06,.01-.06,0,0,.06,0,.06,0,.08-.03,.13-.08,.16-.15,0-.07,.05-.1,.12-.09,.05-.02,.09-.06,.12-.1,.5-.58,1.05-1.11,1.7-1.53Z"/>
      <path class="cls-17" d="M19.37,34.31c-.04,.55,.24,.9,.69,1.15,2.2,1.26,4.38,2.56,6.6,3.77,3.04,1.65,5.99,3.44,9,5.13,1.3,.73,2.58,1.54,3.94,2.18,.61,.29,1.23,.6,1.35,1.39-.4,.33-.79,.68-.96,1.2-.31,.01-.47,.17-.48,.48,0,0,0,0,0,0-.61,.06-.65,.82-1.2,.96-.93-1.11-2.32-1.51-3.51-2.2-5.61-3.24-11.28-6.38-16.91-9.59-.61-.35-1.47-.6-1.39-1.6,0,0,.03-.04,.03-.04,.07-.07,.13-.14,.2-.2,0,0,.03-.04,.03-.04,.07-.07,.14-.14,.21-.21,0,0,.03-.03,.03-.03,.07-.07,.14-.14,.21-.21,0,0,.03-.03,.03-.03,.07-.07,.14-.14,.21-.21,.55-.72,1.19-1.36,1.92-1.91Z"/>
      <path class="cls-24" d="M128.45,131.1c-.42-.6,.05-.68,.47-.87,5.24-2.33,10.85-3.49,16.3-5.15,3.49-1.06,6.91-2.35,10.32-3.66,3.84-1.48,7.6-3.1,11.25-4.98,5.88-3.02,11.64-6.23,16.93-10.23,3.42-2.59,6.65-5.41,9.96-8.14,.27-.22,.48-.56,.9-.52-1.5,2.03-3.45,3.63-5.28,5.33-3.17,2.94-6.58,5.58-10.26,7.84-.19,.06-.4,.08-.55,.18-4.16,2.78-8.51,5.21-12.98,7.43-.49,.24-1.15,.35-1.39,.98-2.55,1.09-5.12,2.16-7.66,3.27-1.06,.47-2.3,.57-3.13,1.51-.15,.02-.29,.03-.44,.05-.58,.03-1.17,.03-1.48,.67-.22,.02-.44,.05-.66,.07-.23,.05-.46,.08-.68,.16-4.54,1.54-9.15,2.83-13.79,4.04-2.6,.67-5.28,1.03-7.8,2.01Z"/>
      <path class="cls-22" d="M12.16,42.15c5.76,3.59,11.85,6.61,17.66,10.11,1.05,.63,2.14,1.21,3.22,1.78,.51,.27,.93,.61,1.22,1.1-.53,.96-1.05,1.93-1.92,2.64-.03-.4-.29-.61-.62-.8-4.25-2.39-8.5-4.79-12.74-7.2-2.93-1.66-5.85-3.34-8.78-5.01,.55-.95,1.24-1.8,1.96-2.63Z"/>
      <path class="cls-7" d="M10.19,44.78c2.93,1.67,5.85,3.35,8.78,5.01,4.24,2.41,8.49,4.81,12.74,7.2,.34,.19,.59,.39,.62,.8-.11,.3-.22,.61-.32,.91-.73,.23-.73,1.15-1.37,1.46-1.44-1.27-3.19-2.05-4.82-2.99-5.36-3.09-10.76-6.11-16.15-9.15-.41-.23-.87-.37-1.31-.55,.51-.97,1.07-1.9,1.83-2.69Z"/>
      <path class="cls-19" d="M107.57,133.23c-.37,3-1.17,5.84-2.46,8.6-2.28,4.85-5.22,9.17-9.2,12.78-.97,.88-2.16,1.5-3.01,2.52-.28,.33-.7,.56-.64,1.09-.01,.1-.02,.21-.03,.31-.58,.12-1.14,.27-1.66,.58-.26,.02-.54-.05-.73,.22,0,0-.05,.01-.05,.01-1.13,.23-2.26,.46-3.39,.68-.04-.07-.08-.14-.12-.22,.46-.39,.93-.78,1.39-1.18,.49,.05,.95-.05,1.36-.33,2.75-1.87,5.42-3.81,7.65-6.35,2.95-3.37,5.21-7.15,7.11-11.18,.99-2.09,1.8-4.22,1.86-6.56,.39-.25,.78-.49,1.17-.74,.24-.08,.49-.16,.73-.23Z"/>
      <path class="cls-3" d="M87.68,158.63c-.46,.39-.93,.78-1.39,1.18,.04,.07,.08,.14,.12,.22,1.13-.23,2.26-.46,3.39-.68-.89,.3-1.77,.72-2.69,.88-.91,.15-1.78,.07-2.69-.49-3.69-2.25-7.45-4.37-11.19-6.54,1.53-.87,3.19-.8,4.86-.75-.08,.49,.27,.72,.61,.92,2.97,1.71,5.9,3.52,8.98,5.03,0,.08,0,.16,0,.24Z"/>
      <path class="cls-24" d="M97.49,155.73c.08-.51,.56-.66,.91-.88,1.1-.7,2.33-1.25,3.2-2.24,.63-.73,1.55-.2,2.12-.63,.75-.56,1.6-.85,2.4-1.28,3.2-1.74,6.52-3.28,9.45-5.47,2.54-1.89,5.24-3.59,7.41-5.95,.24-.26,.47-.56,.88-.54-2.56,3.3-5.63,6.02-9.07,8.37-.09,.07-.18,.13-.27,.2,0,0-.06,.03-.06,.03-.18,.02-.36,.05-.42,.26,0,0,0,0,0,0-.08,.07-.16,.14-.25,.21,0,0-.03,.02-.02,.02-.2,0-.38,.04-.45,.26h0c-.36-.02-.61,.13-.72,.48,0,0,0,0,0,0-.08,.08-.17,.15-.25,.23h0c-.21,0-.39,.03-.47,.26,0,0,0,0,0,0-.08,.07-.17,.15-.25,.22,0,0-.02,.01-.02,.01-.34-.01-.68-.03-.71,.45,0,0-.04,.02-.04,.02-.19,0-.37,.03-.43,.25h0c-.54,.01-1.06,.04-1.19,.72,0,0,0,0,0,0-.47-.1-.84,.17-1.23,.36-1.71,.85-3.38,1.77-5.13,2.54-1.77,.77-3.48,1.72-5.4,2.1Z"/>
      <path class="cls-22" d="M150.73,124.89c.22-.02,.44-.05,.66-.07,.55-.09,1.14-.12,1.48-.67,.15-.02,.29-.03,.44-.05,.18,.07,.36,.15,.54,.22-7.85,3.29-15.99,5.63-24.29,7.45-.31,.07-.62,.13-.92,.19,.01-.7,.52-.78,1.05-.89,6.86-1.47,13.61-3.31,20.24-5.61,.31-.11,.75-.09,.81-.58Z"/>
      <path class="cls-18" d="M97.49,155.73c1.92-.38,3.63-1.33,5.4-2.1,1.75-.76,3.42-1.69,5.13-2.54,.39-.19,.75-.46,1.23-.36-2.24,1.56-4.73,2.65-7.18,3.82-2.84,1.35-5.72,2.63-8.69,3.66-.37,.13-.76,.21-1.15,.31,.01-.1,.02-.21,.03-.31,1.89-.53,3.43-1.79,5.24-2.49Z"/>
      <path class="cls-18" d="M150.73,124.89c-.06,.49-.5,.47-.81,.58-6.63,2.3-13.38,4.13-20.24,5.61-.53,.11-1.04,.19-1.05,.89-.13,.05-.25,.11-.38,.16,.06-.34,.13-.69,.19-1.03,2.52-.98,5.2-1.34,7.8-2.01,4.64-1.2,9.25-2.5,13.79-4.04,.22-.07,.46-.11,.68-.16Z"/>
      <path class="cls-17" d="M164.11,119.32c.24-.64,.9-.74,1.39-.98,4.48-2.22,8.83-4.66,12.98-7.43,.16-.1,.37-.12,.55-.18-.05,.36-.35,.52-.61,.7-2.86,1.92-5.74,3.8-8.83,5.34-1.73,.86-3.37,1.92-5.19,2.6-.1-.01-.2-.02-.31-.03Z"/>
      <path class="cls-18" d="M164.11,119.32c.1,.01,.2,.02,.31,.03-.04,.2-.13,.36-.33,.45-3.37,1.6-6.7,3.27-10.23,4.52-.18-.07-.36-.15-.54-.22,.83-.94,2.07-1.04,3.13-1.51,2.54-1.12,5.11-2.19,7.66-3.27Z"/>
      <path class="cls-6" d="M210.14,58.25c.06-1.37-.58-2.66-.46-4.04,.63,1.73,.76,3.56,.88,5.37,.25,3.62,0,7.22-.7,10.78-.02,.11-.12,.2-.18,.3-.04-.64-.08-1.27,.17-1.88,.16-1.99,.61-3.96,.51-5.98,0-.24,0-.48,0-.72,.05-1.28,.01-2.56-.23-3.83Z"/>
      <path class="cls-6" d="M207.54,77.82c.52-2.42,1.13-4.81,2.13-7.09-.34,2.47-1.1,4.82-2.13,7.09Z"/>
      <path class="cls-6" d="M209.67,54.16c-.57-1.56-1.24-3.09-1.41-4.77,.7,1.52,1.25,3.09,1.41,4.77Z"/>
      <path class="cls-6" d="M66.77,7.24c-1.06,.66-2.21,1.03-3.45,1.14,1.09-.57,2.23-.96,3.45-1.14Z"/>
      <path class="cls-6" d="M75.88,4.62c-1.05,.65-2.23,.82-3.42,.9,1.09-.48,2.25-.74,3.42-.9Z"/>
      <path class="cls-24" d="M195.3,96.8c.11-1.02,.78-1.56,1.67-1.89-.42,.75-.98,1.38-1.67,1.89Z"/>
      <path class="cls-6" d="M205.63,82.11c0-1.02,.43-1.84,1.16-2.52-.2,.93-.62,1.75-1.16,2.52Z"/>
      <path class="cls-24" d="M197.21,94.64c-.02-.66,.27-1.08,.95-1.17-.19,.49-.5,.89-.95,1.17Z"/>
      <path class="cls-6" d="M79.96,3.65c-.6,.46-1.28,.49-1.99,.43,.63-.3,1.29-.43,1.99-.43Z"/>
      <path class="cls-6" d="M182.32,22.8c-.51-.25-1.17-.28-1.4-.96,.58,.15,1.07,.43,1.4,.96Z"/>
      <path class="cls-7" d="M41.91,120.3c.52,.01,1.04,.04,1.2,.69-.46-.13-.88-.32-1.2-.69Z"/>
      <path class="cls-6" d="M72.28,5.58c-.4,.49-.95,.47-1.5,.42,.46-.28,.96-.44,1.5-.42Z"/>
      <path class="cls-6" d="M70.6,6.06c-.4,.48-.94,.47-1.48,.42,.46-.28,.94-.45,1.48-.42Z"/>
      <path class="cls-18" d="M109.26,150.72c.13-.69,.65-.71,1.19-.72-.32,.37-.72,.59-1.19,.72Z"/>
      <path class="cls-24" d="M124.83,137.52c-.03-.51,.1-.9,.7-.93-.12,.4-.35,.71-.7,.93Z"/>
      <path class="cls-24" d="M124.11,138.47c-.03-.51,.11-.88,.7-.92-.12,.39-.35,.7-.7,.92Z"/>
      <path class="cls-24" d="M198.41,93.2c-.03-.51,.1-.9,.7-.93-.12,.39-.35,.71-.7,.93Z"/>
      <path class="cls-6" d="M61.73,8.94c-.22,.52-.65,.44-1.07,.39,.31-.27,.67-.39,1.07-.39Z"/>
      <path class="cls-6" d="M59.82,9.65c-.2,.5-.62,.45-1.03,.41,.28-.31,.64-.4,1.03-.41Z"/>
      <path class="cls-6" d="M58.21,10.56c-.21,0-.42-.02-.63-.03,.29-.3,.64-.41,1.05-.41-.05,.23-.22,.34-.42,.44Z"/>
      <path class="cls-6" d="M207.27,46.97c-.53-.21-.49-.65-.47-1.1,.3,.3,.45,.67,.47,1.1Z"/>
      <path class="cls-6" d="M207.98,48.64c-.36-.29-.49-.68-.45-1.13,.3,.32,.42,.71,.45,1.13Z"/>
      <path class="cls-6" d="M205.14,83.04c0-.35-.16-.77,.42-.81-.02,.33-.16,.61-.42,.81Z"/>
      <path class="cls-18" d="M110.92,149.73c.03-.48,.37-.46,.71-.45-.24,.15-.47,.3-.71,.45Z"/>
      <path class="cls-18" d="M112.61,148.58c.12-.35,.37-.5,.72-.49-.12,.34-.38,.47-.72,.49Z"/>
      <path class="cls-6" d="M204.42,84.33c-.02-.31-.09-.65,.4-.65-.03,.28-.14,.51-.4,.65Z"/>
      <path class="cls-24" d="M200.09,91.02c-.01-.34,0-.66,.46-.67-.05,.3-.19,.53-.46,.67Z"/>
      <path class="cls-24" d="M125.55,136.56c0-.34-.02-.67,.46-.69-.05,.3-.18,.54-.46,.69Z"/>
      <path class="cls-24" d="M201.29,89.35c-.01-.33,0-.65,.45-.68-.05,.29-.18,.53-.45,.68Z"/>
      <path class="cls-24" d="M126.03,135.84c0-.34-.01-.66,.45-.69-.06,.29-.18,.54-.45,.69Z"/>
      <path class="cls-24" d="M200.57,90.33c-.01-.35,0-.68,.47-.69-.03,.32-.2,.54-.47,.69Z"/>
      <path class="cls-24" d="M199.37,91.98c-.02-.35,0-.66,.47-.67-.05,.3-.2,.52-.47,.67Z"/>
      <path class="cls-23" d="M127.72,133.01c0-.29-.05-.59,.28-.75,0,0,.1,0,.1,0h.1c-.16,.26-.32,.51-.48,.76Z"/>
      <path class="cls-6" d="M80.93,3.43c-.23,.28-.53,.19-.81,.17,.23-.25,.53-.2,.81-.17Z"/>
      <path class="cls-6" d="M77.8,4.14c-.21,.3-.51,.19-.79,.18,.22-.25,.51-.21,.79-.18Z"/>
      <path class="cls-6" d="M76.84,4.37c-.2,.31-.51,.2-.79,.19,.22-.25,.51-.21,.79-.19Z"/>
      <path class="cls-6" d="M62.46,8.69c-.12,.24-.33,.21-.55,.19,.14-.2,.33-.22,.55-.19Z"/>
      <path class="cls-6" d="M68.92,6.55c-.13,.24-.34,.2-.54,.17,.14-.2,.33-.2,.54-.17Z"/>
      <path class="cls-6" d="M68.2,6.77c-.12,.25-.34,.21-.56,.18,.14-.2,.34-.22,.56-.18Z"/>
      <path class="cls-6" d="M60.54,9.38c-.11,.26-.33,.24-.55,.2,.13-.21,.33-.24,.55-.2Z"/>
      <path class="cls-6" d="M63.17,8.44c-.12,.26-.34,.22-.56,.2,.14-.19,.34-.23,.56-.2Z"/>
      <path class="cls-6" d="M207.06,79.02c-.04-.25-.06-.49,.22-.62,.01,.24,.02,.47-.22,.62Z"/>
      <path class="cls-6" d="M67.49,7c-.13,.25-.35,.22-.57,.19,.15-.2,.35-.22,.57-.19Z"/>
      <path class="cls-6" d="M57.41,10.6c-.1,.25-.3,.22-.51,.19,.11-.21,.3-.22,.51-.19Z"/>
      <path class="cls-3" d="M89.84,159.32c.18-.27,.47-.21,.73-.22-.2,.2-.45,.25-.73,.22Z"/>
      <path class="cls-6" d="M180.89,21.82c-.19,.02-.36-.02-.44-.23,.19-.01,.35,.03,.44,.23Z"/>
      <path class="cls-7" d="M5.71,92.99c.19,.08,.25,.25,.25,.44-.19-.09-.24-.25-.25-.44Z"/>
      <path class="cls-7" d="M43.13,121.01c.2,0,.36,.05,.44,.25-.19,0-.36-.05-.44-.25Z"/>
      <path class="cls-6" d="M206.82,79.52c-.03-.17,0-.33,.19-.4,.02,.17-.01,.32-.19,.4Z"/>
      <path class="cls-6" d="M204.9,83.52c-.03-.15-.01-.26,.16-.3,.03,.15,0,.26-.16,.3Z"/>
      <path class="cls-7" d="M44.36,121.71c.18,0,.33,.06,.42,.24-.2,.02-.33-.08-.42-.24Z"/>
      <path class="cls-7" d="M44.8,121.97c.2,0,.36,.05,.45,.25-.19,0-.36-.06-.45-.25Z"/>
      <path class="cls-7" d="M46.03,122.67c.18,0,.34,.06,.42,.24-.2,.02-.33-.08-.42-.24Z"/>
      <path class="cls-7" d="M46.48,122.93c.2,0,.36,.05,.45,.25-.19,0-.36-.06-.45-.25Z"/>
      <path class="cls-7" d="M48.19,123.87c.18,0,.34,.06,.42,.24-.2,.02-.32-.09-.42-.24Z"/>
      <path class="cls-7" d="M48.64,124.12c.19,0,.36,.05,.45,.24-.2,.02-.35-.06-.45-.24Z"/>
      <path class="cls-6" d="M207.3,78.35c-.02-.18,0-.34,.19-.42,.02,.18,0,.34-.19,.42Z"/>
      <path class="cls-24" d="M126.51,135.11c.07-.15,.14-.31,.2-.46,.05,.2,0,.37-.2,.46Z"/>
      <path class="cls-6" d="M208.18,49.14c-.06-.14-.12-.29-.17-.43,.16,.1,.2,.25,.17,.43Z"/>
      <path class="cls-18" d="M114.05,147.61c.07-.21,.24-.25,.42-.26-.14,.09-.28,.17-.42,.26Z"/>
      <path class="cls-18" d="M113.33,148.1c.08-.21,.26-.25,.45-.26-.1,.17-.25,.27-.45,.26Z"/>
      <path class="cls-18" d="M111.89,149.05c.08-.22,.26-.26,.47-.25-.1,.19-.26,.27-.47,.25Z"/>
      <path class="cls-18" d="M110.45,150c.06-.22,.24-.24,.43-.25-.14,.08-.28,.17-.43,.25Z"/>
      <path class="cls-6" d="M207.49,47.44c-.2-.09-.22-.25-.2-.44,.19,.09,.22,.25,.2,.44Z"/>
      <path class="cls-6" d="M206.75,45.75c-.18-.06-.2-.2-.18-.36,.17,.07,.2,.2,.18,.36Z"/>
      <path class="cls-6" d="M206.5,45.27c-.18-.06-.19-.2-.18-.36,.17,.07,.2,.2,.18,.36Z"/>
      <path class="cls-6" d="M206.27,44.79c-.18-.06-.2-.19-.19-.35,.16,.06,.21,.19,.19,.35Z"/>
      <path class="cls-6" d="M206.02,44.31c-.06-.1-.12-.21-.18-.31,.15,.05,.2,.16,.18,.31Z"/>
      <path class="cls-6" d="M81.68,3.36c-.13,0-.26,0-.39,0,.13-.16,.26-.22,.39,0Z"/>
      <path class="cls-6" d="M56.68,10.88c-.06,.19-.2,.18-.35,.14,.08-.14,.2-.19,.35-.14Z"/>
      <path class="cls-24" d="M199.86,91.3c.06-.07,.13-.14,.19-.22-.06,.07-.13,.14-.19,.22Z"/>
      <path class="cls-23" d="M127.48,133.25c.08-.08,.17-.17,.25-.25-.08,.08-.17,.17-.25,.25Z"/>
      <path class="cls-24" d="M194.59,97.54c.08-.08,.15-.16,.23-.24,0,.15-.08,.23-.23,.24Z"/>
      <path class="cls-24" d="M194.82,97.3c.07-.08,.15-.15,.22-.23-.07,.08-.15,.15-.22,.23Z"/>
      <path class="cls-24" d="M195.06,97.05c.07-.07,.14-.15,.22-.22-.07,.07-.14,.15-.22,.22Z"/>
      <path class="cls-24" d="M196.98,94.89c.07-.08,.14-.15,.21-.23-.07,.08-.14,.15-.21,.23Z"/>
      <path class="cls-6" d="M204.19,84.62c0-.09-.02-.17-.03-.26,.08,0,.16,0,.23,.01-.07,.08-.14,.17-.21,.25Z"/>
      <path class="cls-24" d="M199.14,92.25c.06-.07,.13-.14,.19-.21-.06,.07-.13,.14-.19,.21Z"/>
      <path class="cls-7" d="M5.98,93.46c.06,.09,.13,.18,.19,.27-.06-.09-.13-.18-.19-.27Z"/>
      <path class="cls-7" d="M46.93,123.18c.08,.05,.16,.11,.23,.16-.14,.03-.2-.04-.23-.16Z"/>
      <path class="cls-18" d="M16.73,36.95c-.07,.07-.13,.14-.2,.2,.07-.07,.13-.14,.2-.2Z"/>
      <path class="cls-18" d="M16.97,36.71c-.07,.07-.14,.14-.21,.21,.07-.07,.14-.14,.21-.21Z"/>
      <path class="cls-18" d="M17.21,36.47c-.07,.07-.14,.14-.21,.21,.07-.07,.14-.14,.21-.21Z"/>
      <path class="cls-24" d="M123.88,138.73c.07-.07,.13-.14,.2-.22-.07,.07-.13,.14-.2,.22Z"/>
      <path class="cls-18" d="M17.45,36.23c-.07,.07-.14,.14-.21,.21,.07-.07,.14-.14,.21-.21Z"/>
      <path class="cls-17" d="M19.6,34.08c-.06,.06-.13,.13-.19,.19,.06-.06,.13-.13,.19-.19Z"/>
      <path class="cls-7" d="M47.37,123.43c.09,.05,.19,.11,.28,.16-.09-.05-.19-.11-.28-.16Z"/>
      <path class="cls-18" d="M113.8,147.82c.08-.07,.16-.14,.25-.21-.08,.07-.16,.14-.25,.21Z"/>
      <path class="cls-7" d="M47.84,123.67c.1,.06,.2,.12,.3,.18-.1-.06-.2-.12-.3-.18Z"/>
      <path class="cls-17" d="M19.84,33.85c-.06,.06-.13,.12-.19,.19,.06-.06,.13-.12,.19-.19Z"/>
      <path class="cls-18" d="M112.37,148.8c.08-.08,.17-.15,.25-.23,0,.17-.11,.21-.25,.23Z"/>
      <path class="cls-7" d="M43.58,121.26c.08,.05,.15,.11,.23,.16-.14,.03-.21-.04-.23-.16Z"/>
      <path class="cls-18" d="M111.65,149.27c.08-.07,.17-.15,.25-.22,0,.16-.11,.21-.25,.22Z"/>
      <path class="cls-17" d="M20.08,33.61c-.06,.06-.12,.12-.18,.18,.06-.06,.12-.12,.18-.18Z"/>
      <path class="cls-7" d="M45.26,122.22c.08,.06,.16,.11,.24,.17-.14,.03-.21-.04-.24-.17Z"/>
      <path class="cls-7" d="M44.01,121.51c.1,.06,.19,.12,.29,.17-.1-.06-.19-.12-.29-.17Z"/>
      <path class="cls-17" d="M20.31,33.39c-.06,.06-.12,.11-.17,.17,.06-.06,.12-.11,.17-.17Z"/>
      <path class="cls-17" d="M20.55,33.16c-.03,.08-.08,.13-.16,.15,.05-.05,.11-.1,.16-.15Z"/>
      <path class="cls-17" d="M20.78,32.97s-.07,.08-.12,.1c0,0,.02-.09,.02-.09l.09-.02Z"/>
      <path class="cls-24" d="M201.77,88.62c.05-.07,.1-.13,.14-.2-.05,.07-.1,.13-.14,.2Z"/>
      <path class="cls-7" d="M49.1,124.37c.07,.04,.14,.09,.22,.13-.07-.04-.14-.09-.22-.13Z"/>
      <path class="cls-7" d="M45.68,122.47c.1,.06,.2,.12,.3,.17-.1-.06-.2-.12-.3-.17Z"/>
      <path class="cls-8" d="M22.7,31.23c-.06,.06-.12,.11-.17,.17,.06-.06,.12-.11,.17-.17Z"/>
      <path class="cls-24" d="M198.18,93.45c.07-.07,.14-.15,.21-.22-.07,.07-.14,.15-.21,.22Z"/>
      <path class="cls-6" d="M205.75,43.83c-.04-.06-.09-.12-.13-.18,.04,.06,.08,.12,.13,.18Z"/>
      <path class="cls-24" d="M201.05,89.62c.07-.07,.13-.15,.2-.22-.07,.07-.13,.15-.2,.22Z"/>
      <path class="cls-18" d="M128.2,132.26h-.1s-.1,0-.1,0c0-.07,0-.13,.02-.2,.09,.02,.18,.03,.27,.05,.03,.08,0,.13-.08,.15Z"/>
      <path class="cls-18" d="M114.53,147.32c.09-.07,.18-.13,.27-.2-.09,.07-.18,.13-.27,.2Z"/>
      <path class="cls-30" d="M210.14,58.25c.25,1.27,.28,2.55,.23,3.83-.19,.04-.39,.07-.42,.31-.04,.31,.18,.38,.42,.42,.1,2.02-.36,3.98-.51,5.98-.77-.01-.9,.67-1.23,1.14-.18,.25-.24,.71-.6,.66-.43-.06-.24-.51-.28-.8-.5-3.53-.6-7.1-1.39-10.59-1.4-6.2-4.35-11.55-8.55-16.28-3.82-4.3-8.33-7.69-13.35-10.41-6.17-3.35-12.64-5.98-19.49-7.63-4.78-1.15-9.6-2.05-14.5-2.58-3.8-.41-7.6-.6-11.41-.73-3.14-.11-6.28-.07-9.4,.1-3.71,.21-7.42,.5-11.12,1.05-4.04,.6-8.08,1.17-12.07,2.02-5.83,1.24-11.56,2.8-17.2,4.77-3.41,1.19-6.8,2.41-10.14,3.77-3.02,1.23-5.92,2.73-8.86,4.12-3.02,1.43-5.81,3.31-8.91,4.56-.7,.28-1.32,.73-1.99,1.09-.21,.11-.42,.24-.65,.3-.58,.15-1.22-.03-1.56-.36-.31-.3,.2-.78,.47-1.11,1.23-1.5,2.4-3,4.06-4.15,1.51-1.05,2.81-2.41,4.27-3.58,1.92-1.55,4.11-2.58,6.14-3.89,2.64-1.7,5.42-3.19,8.27-4.52,3.36-1.56,6.73-3.07,10.23-4.3,4.54-1.6,9.1-3.1,13.78-4.23,5.47-1.32,10.99-2.36,16.59-3.06,4.46-.56,8.92-1,13.42-.92,1.01,.02,1.87-.74,2.91-.49,.06,.12,.11,.34,.19,.36,.26,.06,.26-.18,.29-.36,.4,0,.79,0,1.19,0,.05,.42,.34,.49,.69,.48,3.86-.16,7.68,.47,11.54,.48,.1,.51,.32,.63,.72,.24,.72,.06,1.42,.35,2.16,.24,.02,.74,.84,.26,1.07,.71-.24,.42-.64,.26-.96,.24-3.76-.22-7.53-.7-11.28-.61-2.77,.07-5.56-.04-8.33,.27-2.72,.31-5.44,.51-8.12,1.07-1.05,.22-2.09,.47-3.12,.73-.33,.08-.83,.11-.75,.58,.07,.43,.55,.37,.9,.37,4.26-.02,8.52,.2,12.78,.3,4.43,.1,8.86,.48,13.26,1.07,4.29,.57,8.55,1.21,12.75,2.24,5.21,1.27,10.37,2.72,15.31,4.89,4.17,1.83,8.21,3.84,12.01,6.36,2.89,1.92,5.59,4.06,8.08,6.46,3.28,3.16,6.05,6.72,8.34,10.66,.96,1.65,1.88,3.32,2.84,4.97,.53,.92,.62,1.96,.81,2.97,.07,.34-.04,.75,.48,.82Z"/>
      <path class="cls-6" d="M137.78,12.73c-.04,.17-.04,.41-.29,.36-.09-.02-.13-.23-.19-.36,.16,0,.32,0,.49,0Z"/>
      <path class="cls-22" d="M30.64,60.16c.64-.31,.64-1.23,1.37-1.46-.28,1.34-1.01,2.5-1.58,3.71-3.37,7.2-5.27,14.64-4.66,22.7,.34,4.4,1.13,8.65,2.69,12.75,1.84,4.81,4.61,9.06,8.05,12.86,4.06,4.49,8.79,8.16,14.03,11.19,4.83,2.81,9.94,5.01,15.25,6.69,5.79,1.84,11.7,3.21,17.74,3.99,4.57,.59,9.15,1.09,13.75,1.11,2.39,.01,4.77,.14,7.16,.25,.33,.01,.66,0,.69,.46l-.67,.32c-.24,.08-.48,.17-.72,.25l-.03-.09c-.51-.81-1.38-.63-2.1-.66-2.07-.08-4.15,.01-6.23-.05-5.68-.16-11.31-.83-16.91-1.81-7.4-1.29-14.57-3.39-21.45-6.38-5.35-2.32-10.37-5.24-14.92-8.93-3.89-3.15-7.35-6.69-10.16-10.85-3.21-4.75-5.39-9.92-6.49-15.53-.35-1.82-.46-3.7-.62-5.55-.56-6.48,1.03-12.6,2.79-18.72,.65-2.25,2-4.16,3-6.24Z"/>
      <path class="cls-8" d="M87.68,158.38c-3.08-1.52-6-3.32-8.98-5.03-.34-.2-.68-.43-.61-.92,.32-.02,.64-.03,.96-.05,.75,.29,1.5,.6,2.16-.18,.24,0,.48,0,.71-.01-.03,.44,.13,.74,.54,.96,2.3,1.25,4.6,2.53,6.89,3.8-.41,.65-.97,1.13-1.69,1.43Z"/>
      <path class="cls-17" d="M89.36,156.95c-2.3-1.27-4.59-2.55-6.89-3.8-.41-.22-.57-.52-.54-.96,.32-.08,.64-.16,.96-.24,.17,.22,.33,.21,.48-.02,.4,0,.8-.01,1.2-.02,0,.36,.2,.57,.5,.74,1.83,1.03,3.66,2.07,5.49,3.1-.08,.16-.16,.32-.24,.48-.32,.24-.64,.48-.96,.72Z"/>
      <path class="cls-18" d="M90.56,155.76c-1.83-1.04-3.66-2.08-5.49-3.1-.3-.17-.5-.38-.5-.74,.07-.02,.13-.03,.2-.03,.59-.08,1.32,.41,1.72-.43,.08,0,.16-.02,.23-.03,.24,0,.48,.01,.72,.02,.85,.5,1.68,1.03,2.54,1.5,.71,.39,1.33,1.05,2.26,.91-.3,.87-1.1,1.29-1.69,1.91Z"/>
      <path class="cls-18" d="M102.77,135.62c.21-.38,.49-.69,.96-.74,0,0,.03,.09,.03,.09-.33,1.71-.93,3.31-1.67,4.89-1.77,3.78-3.67,7.47-6.29,10.74-.64,.8-1.1,1.91-2.35,2.04,0-.16,0-.33,0-.49,.32-.47,.65-.95,.97-1.42,.57-.2,.61-.82,.96-1.2,.67-.09,1-.62,1.36-1.09,2.48-3.26,4.06-7.01,5.7-10.72,.28-.64,.45-1.36,.35-2.1Z"/>
      <path class="cls-22" d="M93.43,152.15c0,.16,0,.33,0,.49-.53,.27-.79,.81-1.19,1.21-.93,.14-1.55-.52-2.26-.91-.86-.47-1.7-1-2.54-1.5,0-.08,0-.16,0-.25,.24,0,.48-.01,.72-.02,1.47-.32,2.87-.27,4.15,.65,.32,.23,.7,.37,1.11,.32Z"/>
      <path class="cls-22" d="M102.77,135.62c.1,.74-.07,1.46-.35,2.1-1.64,3.71-3.22,7.46-5.7,10.72-.35,.46-.68,1-1.36,1.09,.48-1.27,1.35-2.31,2.12-3.4,2.11-3,3.7-6.26,4.81-9.75,.1-.32,.16-.61,.49-.76Z"/>
      <path class="cls-7" d="M93.43,152.15c-.42,.05-.8-.1-1.11-.32-1.28-.92-2.69-.97-4.15-.65,.04-.27,.19-.37,.46-.46,1.93-.63,3.86-.96,5.78,.01-.32,.47-.65,.95-.97,1.42Z"/>
      <path class="cls-17" d="M81.21,152.2c-.66,.78-1.41,.47-2.16,.18,.69-.39,1.44-.19,2.16-.18Z"/>
      <path class="cls-22" d="M86.49,151.45c-.4,.84-1.13,.34-1.72,.43,.41-.8,1.14-.32,1.72-.43Z"/>
      <path class="cls-7" d="M87.44,151.19c0,.08,0,.16,0,.25-.24,0-.48-.01-.72-.02,.1-.51,.33-.59,.71-.23Z"/>
      <path class="cls-22" d="M83.37,151.93c-.15,.23-.31,.24-.48,.02,.15-.27,.31-.28,.48-.02Z"/>
      <path class="cls-8" d="M105.15,134.4c-.04-.45-.36-.44-.69-.46-2.39-.11-4.77-.23-7.16-.25-4.61-.02-9.18-.53-13.75-1.11-6.05-.78-11.95-2.15-17.74-3.99-5.31-1.69-10.42-3.89-15.25-6.69-5.23-3.04-9.96-6.71-14.03-11.19-3.44-3.8-6.21-8.05-8.05-12.86-1.57-4.11-2.36-8.35-2.69-12.75-.62-8.06,1.29-15.5,4.66-22.7,.57-1.21,1.3-2.37,1.58-3.71,.11-.3,.21-.61,.32-.91,.88-.71,1.39-1.68,1.92-2.64,.9-.38,.99-1.56,1.9-1.93,.09,.83-.87,1.3-.72,2.15-.66,.9-1.31,1.81-1.68,2.87-.62,.04-.74,.45-.71,.96,0,0,0,0,0,0-.32,0-.48,.17-.47,.49,0,.08,0,.16,0,.23-.32,.13-.48,.37-.47,.72,0,.16,0,.31,0,.47-.3,.05-.6,.1-.24,.48,.04,.42-.34,.63-.48,.96-.86,.47-1.06,1.29-1.19,2.16,0,.16,0,.32,0,.47-.88,.65-1.03,1.68-1.29,2.62-.43,1.59-1.35,3.07-1.11,4.81,0,.16,0,.32,0,.48-.75,.19-.6,.9-.67,1.37-.51,3.44-.77,6.86-.63,10.37,.16,3.9,1.07,7.58,2.11,11.26,.26,.9,.4,2.02,1.35,2.64,0,.08,0,.16,0,.24,.05,1.31,.7,2.3,1.67,3.12,0,.08,0,.16,0,.24,.03,.52,.04,1.06,.72,1.2,0,0,0,0,0,0,0,.35,0,.7,.48,.72,0,.08,0,.16,0,.24,0,.31,.16,.47,.47,.48,0,0,0,0,0,0,0,.35,0,.69,.48,.72,.16,.24,.32,.48,.48,.72-.06,.58,.23,.95,.72,1.2,0,0,0,0,0,0,.02,.46,.26,.7,.72,.72,0,.08,0,.16,0,.24,.05,.61,.51,.9,.96,1.2,.31,.49,.71,.89,1.2,1.2,.07,.57,.39,.89,.96,.96,.43,.17,.52,.61,.72,.95,.33,.53,.7,1.02,1.43,.97,.49,.3,.89,.7,1.2,1.2,.02,.48,.37,.48,.72,.48,.16,.24,.32,.47,.49,.71,.21,.39,.47,.71,.96,.72,0,0,0,0,0,0,.18,.44,.54,.5,.95,.48,0,0,0,0,0,0,.2,.91,.97,1.14,1.68,1.43,.24,.31,.58,.44,.95,.48,.02,.48,.37,.48,.72,.48,.2,0,.38,.05,.48,.24,.4,.79,1.07,1.14,1.92,1.2,.2,0,.38,.05,.48,.24,.37,.64,.85,1.11,1.68,.96,.42-.03,.63,.34,.96,.48,.01,.31,.17,.47,.49,.47,1.64,.67,3.3,1.31,4.93,2.01,6.82,2.92,13.94,4.83,21.23,6.07,3.9,.67,7.85,1.07,11.82,1.32,2.75,.18,5.52-.08,8.24,.24,2.01,.24,4.04-.14,6.01,.41-.39,.25-.78,.49-1.17,.74-.17,.07-.35,.13-.52,.2Z"/>
      <path class="cls-3" d="M29.92,98.74c-.95-.62-1.09-1.74-1.35-2.64-1.05-3.68-1.95-7.36-2.11-11.26-.15-3.52,.12-6.94,.63-10.37,.07-.47-.07-1.18,.67-1.37-.1,2.01-.64,3.97-.77,5.99-.13,1.94-.09,3.85,0,5.79,.11,2.51,.56,4.94,1.02,7.39,.35,1.88,1.06,3.64,1.66,5.44,.11,.34,.3,.65,.26,1.03Z"/>
      <path class="cls-3" d="M35.43,55.37c-.15-.85,.81-1.32,.72-2.15,0,0,0,0,0,0,.31-.01,.47-.17,.47-.49,.56-.72,1.12-1.43,1.68-2.15,.55-.14,.59-.9,1.2-.96,.01,.88-.64,1.39-1.11,2-.97,1.26-1.76,2.67-2.96,3.75Z"/>
      <path class="cls-3" d="M27.76,72.62c-.24-1.74,.68-3.22,1.11-4.81,.25-.94,.4-1.97,1.29-2.62-.57,1.83-1.1,3.67-1.72,5.48-.22,.65-.01,1.46-.68,1.95Z"/>
      <path class="cls-3" d="M31.59,102.09c-.97-.82-1.62-1.81-1.67-3.12,.94,.83,1.21,2.03,1.67,3.12Z"/>
      <path class="cls-3" d="M30.16,64.72c.13-.87,.33-1.69,1.19-2.16-.29,.78-.43,1.64-1.19,2.16Z"/>
      <path class="cls-3" d="M46.94,118.86c-.72-.3-1.49-.53-1.68-1.43,.72,.29,1.41,.61,1.68,1.43Z"/>
      <path class="cls-3" d="M51.01,121.26c-.85-.06-1.52-.41-1.92-1.2,.79,.16,1.4,.6,1.92,1.2Z"/>
      <path class="cls-3" d="M53.17,122.46c-.83,.15-1.3-.32-1.68-.96,.65,.17,1.29,.35,1.68,.96Z"/>
      <path class="cls-3" d="M40.94,113.83c-.73,.05-1.1-.43-1.43-.97,.73-.05,1.1,.43,1.43,.97Z"/>
      <path class="cls-3" d="M36.63,109.75c-.45-.29-.91-.59-.96-1.2,.69,.1,.98,.53,.96,1.2Z"/>
      <path class="cls-3" d="M38.79,111.91c-.57-.07-.89-.39-.96-.96,.57,.07,.89,.39,.96,.96Z"/>
      <path class="cls-3" d="M34.95,107.6c-.49-.25-.78-.62-.72-1.2,.49,.25,.78,.62,.72,1.2Z"/>
      <path class="cls-3" d="M32.31,103.53c-.68-.14-.69-.67-.72-1.2,.48,.25,.64,.7,.72,1.2Z"/>
      <path class="cls-3" d="M33.03,59.2c-.03-.52,.1-.92,.71-.96,0,.49-.33,.75-.71,.96Z"/>
      <path class="cls-3" d="M44.3,116.94c-.49-.01-.75-.33-.96-.72,.51-.02,.92,.1,.96,.72Z"/>
      <path class="cls-3" d="M35.67,108.32c-.46-.02-.7-.26-.72-.72,.46,.02,.7,.26,.72,.72Z"/>
      <path class="cls-3" d="M45.26,117.42c-.41,.02-.78-.04-.95-.48,.41-.02,.78,.04,.95,.48Z"/>
      <path class="cls-3" d="M42.86,115.51c-.35,0-.69,0-.72-.48,.35,0,.59,.16,.72,.48Z"/>
      <path class="cls-3" d="M32.08,60.65c0-.35,.15-.59,.47-.72,0,.35,0,.69-.47,.72Z"/>
      <path class="cls-3" d="M32.79,104.25c-.48-.02-.48-.37-.48-.72,.32,.13,.48,.37,.48,.72Z"/>
      <path class="cls-3" d="M33.75,105.68c-.48-.02-.48-.37-.48-.72,.32,.13,.48,.37,.48,.72Z"/>
      <path class="cls-3" d="M48.61,119.82c-.35,0-.7,0-.72-.48,.35,0,.59,.16,.72,.48Z"/>
      <path class="cls-3" d="M54.61,123.41c-.31,0-.47-.16-.49-.47,.31,0,.47,.16,.49,.47Z"/>
      <path class="cls-3" d="M39.5,49.62c0-.31,.17-.47,.48-.48,0,.32-.16,.48-.48,.48Z"/>
      <path class="cls-3" d="M31.83,61.6c-.36-.38-.06-.43,.24-.48,0,.2-.04,.38-.24,.48Z"/>
      <path class="cls-3" d="M32.56,59.69c0-.32,.16-.48,.47-.49,0,.31-.17,.47-.47,.49Z"/>
      <path class="cls-3" d="M33.27,104.96c-.31-.01-.47-.17-.47-.48,.31,0,.47,.17,.47,.48Z"/>
      <path class="cls-5" d="M151.91,13.92c-.4,.39-.62,.27-.72-.24,.26,0,.55-.05,.72,.24Z"/>
      <path class="cls-8" d="M36.62,52.73c0,.32-.16,.48-.47,.49,0-.31,.16-.47,.47-.49Z"/>
      <path class="cls-18" d="M152.88,124.15c-.35,.55-.93,.57-1.48,.67,.31-.64,.9-.64,1.48-.67Z"/>
      <path class="cls-24" d="M105.15,134.4c.17-.07,.35-.13,.52-.2-.06,2.35-.87,4.48-1.86,6.56-1.9,4.03-4.16,7.8-7.11,11.18-2.23,2.54-4.9,4.48-7.65,6.35-.41,.28-.87,.38-1.36,.33,0-.08,0-.16,0-.24,.71-.3,1.27-.78,1.68-1.43,.32-.24,.64-.48,.96-.72,1.04-.04,1.73-.72,2.43-1.37,4.19-3.88,7.46-8.42,9.74-13.65,.91-2.08,2.22-4.06,1.98-6.5l.67-.32Z"/>
      <path class="cls-5" d="M210.37,62.8c-.24-.04-.45-.11-.42-.42,.03-.24,.23-.27,.42-.31,0,.24,0,.48,0,.72Z"/>
      <path class="cls-3" d="M104.47,134.72c.24,2.44-1.07,4.42-1.98,6.5-2.28,5.23-5.56,9.77-9.74,13.65-.7,.64-1.39,1.32-2.43,1.37,.08-.16,.16-.32,.24-.48,.59-.61,1.39-1.04,1.69-1.91,.4-.4,.66-.94,1.19-1.21,1.26-.13,1.71-1.24,2.35-2.04,2.62-3.26,4.52-6.96,6.29-10.74,.74-1.58,1.35-3.18,1.67-4.89,.24-.08,.48-.17,.72-.25Z"/>
    </g>
    <g>
      <path class="cls-13" d="M158.98,51.06c-.02,1.87,1.39,2.46,2.75,3.22,1.59,.9,3.21,1.76,4.78,2.69,1.21,.71,2.57,1.09,3.71,1.9,2.56,1.79,4.81,3.81,6.31,6.66,1.01,1.94,1.87,3.87,2.29,6.01,.05,.26,.03,.61,.34,.77v8.63c-.64,.69-.63,1.61-.9,2.44-1.54,.25-1.52,.25-1.54-1.38-.04-2.79,.2-5.58-.44-8.35-1.13-4.86-3.89-8.42-8.42-10.51-2.52-1.16-5.26-1.26-7.99-1.25-3.26,.01-3.26,0-3.32-3.29,0-.07,0-.15,0-.22,0-.92-.47-1.1-1.22-.73-.63,.31-1.22,.68-1.84,1.01-.31,.17-.64,.22-.93-.03-.28-.24-.15-.51-.09-.81,.15-.74,.47-1.36,.91-1.98,.85-1.18,1.89-2.18,2.97-3.1,.78-.66,1.48-1.56,2.63-1.69Z"/>
      <path class="cls-21" d="M129.29,91.1c-.47,2.19-1.56,4.11-2.69,6.01-.06,.09-.12,.19-.18,.28-.06,.06-.12,.12-.18,.18-.63-.05-.89,.47-1.23,.83-2.39,2.49-4.96,4.74-8.16,6.13-3.5,1.52-7.13,2.31-10.95,1.58-5.24-1.01-8.64-4.29-10.78-9-2.03-4.48-2.04-9.2-1.47-13.94,.41-3.39,1.36-6.66,2.52-9.88,.95-2.65,2.39-5.04,3.83-7.41,1.86-3.05,4.5-5.42,7.44-7.42,.71-.48,1.33-1.2,2.32-1.18,.12,.32,.46,.69-.14,.88-.83,.27-1.48,.83-2.12,1.37-1.91,1.63-3.71,3.37-4.48,5.88-.09,.28-.25,.58,.02,.82,.26,.23,.56,.11,.82-.04,.83-.47,1.66-.95,2.5-1.41,.7-.39,1.15-.21,1.17,.63,.03,.77,0,1.55,.01,2.32,0,.69,.27,1.07,1.06,1.07,1.23,0,2.46,.21,3.69,.19,3.61-.07,6.89,.9,9.7,3.16,2.11,1.7,3.85,3.77,4.7,6.4,.58,1.8,.94,3.67,1.06,5.59,.13,2.03,.11,4.03-.04,6.05-.02,.29-.05,.61,.25,.8,.35,.23,.53-.11,.74-.29,.18-.15,.38-.23,.61-.21l-.03,.62Z"/>
      <path class="cls-21" d="M158.98,51.06c-1.15,.13-1.85,1.03-2.63,1.69-1.08,.93-2.12,1.93-2.97,3.1-.44,.61-.76,1.24-.91,1.98-.06,.3-.2,.57,.09,.81,.3,.25,.62,.19,.93,.03,.62-.33,1.21-.7,1.84-1.01,.75-.37,1.22-.18,1.22,.73,0,.07,0,.15,0,.22,.07,3.29,.07,3.3,3.32,3.29,2.73-.01,5.47,.09,7.99,1.25,4.53,2.09,7.3,5.65,8.42,10.51,.64,2.76,.39,5.56,.44,8.35,.02,1.63,0,1.63,1.54,1.38-.62,2.35-1.43,4.63-2.82,6.66-.23,.07-.26,.25-.26,.45,0,0,0,0,0,0-.4-.05-.67,.09-.93,.43-1.16,1.54-2.68,2.74-4.17,3.92-2.79,2.23-6,3.63-9.56,4.25-5.18,.9-9.68-.43-13.3-4.16-3.45-3.54-4.65-8.08-4.86-12.89-.18-4.18,.53-8.25,1.68-12.26,1.77-6.2,4.74-11.7,9.55-16.1,1.54-1.41,3.16-2.74,5.14-3.51,.22,.26,.34,.54,.24,.89Z"/>
      <path class="cls-15" d="M98.01,107.3c-.07-.03-.15-.06-.22-.09-.07-.05-.14-.09-.21-.14,0,0,0,0,0,0-.1-.06-.21-.12-.31-.18-.06,.02-.11,0-.13-.06-.09-.06-.18-.11-.28-.17-.07,.02-.13,0-.17-.07-.09-.05-.18-.1-.28-.15-.08,.02-.13,0-.17-.08-.08-.05-.16-.1-.24-.15,0,0,0,0,0,0-1.32-1.41-2.65-2.82-3.97-4.23-1.12-2.02-2.21-4.05-3-6.22-.24-.66-.7-1.1-1.28-1.44-3.25-1.94-6.42-4.01-9.91-5.53-1.05-.46-1.78-1.47-2.86-1.8-1.54-.47-2.79-1.44-4.2-2.13-1.51-.74-2.83-1.85-4.46-2.36,0,0,0,0,0,0,0-.23,.05-.48-.16-.66-.02-.14-.04-.29-.06-.43,0-.31,.1-.64-.17-.9-.02-.14-.04-.28-.06-.42-.03-.45,.16-.93-.16-1.35,0-.15,0-.3,0-.45,.02-.02,.07-.05,.07-.06-.02-.05-.05-.1-.07-.15-.43-7.01,1.18-13.51,4.91-19.48,.42-.04,.8,.07,1.16,.28,5.02,2.92,10.16,5.61,15.26,8.39,2.12,1.16,4.24,2.34,6.36,3.5,0,.14-.02,.29-.02,.43-1.32,1.54-1.69,3.47-2.16,5.35,0,.14-.02,.28-.03,.42-.21,.1-.24,.27-.19,.47,0,.14-.01,.28-.02,.42-.35,.39-.49,.84-.42,1.35,0,.14-.02,.28-.02,.42-.29,.17-.24,.43-.2,.69,0,.14-.01,.28-.02,.42-.36,.24-.23,.59-.2,.91,0,.21-.01,.43-.02,.64-.44,.47-.19,1.04-.21,1.57,0,.29,0,.58,0,.86-.4,1.4-.39,2.8,0,4.2,0,.29,.01,.57,.02,.86,0,.46-.23,.96,.21,1.35,0,.14,0,.28,0,.42,.09,1.84,.63,3.57,1.29,5.27,.05,.14,.27,.21,.41,.31,.02,.2,.05,.41,.07,.61,.1,.56,.19,1.13,.83,1.37,.09,.21,.17,.42,.26,.63,.04,.42,.13,.81,.63,.91,0,.07,.02,.13,.03,.19-.02,.3,.13,.44,.42,.46,.08,.14,.16,.28,.24,.43,0,.43,.23,.64,.64,.69,.58,1.1,1.56,1.83,2.48,2.62,.1,.32,.32,.46,.64,.46,1.15,.86,2.31,1.69,3.74,2.03,.05,.26,.2,.41,.48,.4,1.68,.48,3.4,.77,5.16,.75,.63,.01,1.26,.02,1.89,.03-.01,.41-.49,.26-.63,.51-.08,0-.17,.02-.25,.03-1.78,.06-3.56-.06-5.34-.19-.13-.02-.27-.04-.4-.06-.39-.39-.86-.45-1.38-.38-.13-.03-.27-.06-.4-.08-.09-.04-.19-.09-.28-.13-.13-.03-.25-.06-.38-.09-.09-.04-.18-.09-.28-.13h-.09s-.07-.05-.07-.05c-.1-.17-.26-.21-.45-.19,0,0,0,0,0,0-.09-.2-.27-.24-.47-.22-.07-.03-.13-.05-.2-.08-.08-.05-.17-.09-.25-.14-.08,.01-.15-.01-.19-.08-.08-.05-.15-.1-.23-.15Z"/>
      <path class="cls-15" d="M159.25,101.96c-2.91,.63-5.81,.69-8.69-.23-.12-.19-.3-.21-.5-.17-.13-.03-.26-.06-.38-.09-.09-.04-.19-.09-.28-.13h-.09s-.07-.04-.07-.04c-.12-.19-.3-.21-.5-.18-.07,.02-.13,0-.17-.07-.1-.17-.25-.2-.43-.18-.08-.03-.16-.06-.24-.08-.07-.04-.15-.09-.22-.13-.07-.03-.15-.06-.22-.09-.07-.04-.14-.09-.21-.13,0,0,0,0,0,0-.09-.18-.24-.23-.43-.22,0,0-.01,0-.01,0-.08-.18-.23-.23-.41-.23,0,0-.03-.01-.03-.01-.09-.06-.19-.11-.28-.17-.07,.02-.13,0-.17-.07-.09-.05-.18-.1-.28-.15-.08,.02-.13,0-.17-.08-.08-.05-.17-.1-.25-.15-.08,.01-.14-.01-.19-.08-.07-.05-.15-.1-.22-.15,0,0,0,0,0,0-.02-.78-.77-.91-1.21-1.3-1.24-1.13-2.11-2.56-3.22-3.8-.51-1.45-1.55-2.68-1.85-4.2-.37-1.87-1.72-2.96-3.2-3.65-1.73-.8-3.39-1.63-4.89-2.79-.1-1.19-.13-2.37-.42-3.56-.39-1.61-.52-3.29-1.11-4.84-1.59-4.23-4.47-7.36-8.38-9.6-1.88-1.07-3.88-1.91-5.64-3.2,.61-.25,.5-.86,.62-1.32,.89-3.32,2.18-6.47,4.08-9.35,.21,.05,.44,.06,.63,.16,5.66,3.06,11.34,6.09,16.95,9.23,1.75,.98,3.73,1.6,5.24,3.01,0,.07-.01,.15-.02,.22-.22,.08-.35,.25-.46,.45-2.15,4.07-2.9,8.52-3.28,13.01-.22,2.61-.09,5.26,.39,7.88,.54,2.97,1.64,5.69,3.2,8.25,.13,.21,.32,.29,.56,.3,.02,.06,.03,.12,.04,.18-.03,.3,.11,.46,.41,.48,.07,.08,.15,.15,.22,.23,0,.47,.12,.83,.67,.87,.74,.59,1.4,1.26,2,2,.04,.55,.41,.67,.87,.67,1.97,1.53,4.12,2.65,6.65,2.93,.08,.25,.17,.48,.47,.17,1.7,.25,3.4,.38,5.1-.02,.01,.14,.03,.29,.04,.43Z"/>
      <path class="cls-13" d="M114.88,62.18c1.75,1.29,3.76,2.13,5.64,3.2,3.91,2.24,6.79,5.37,8.38,9.6,.58,1.55,.72,3.24,1.11,4.84,.29,1.19,.32,2.37,.42,3.56-.11,1.52-.21,3.04-.32,4.55-.47,.17-.38,.56-.37,.92,.01,.58,.04,1.17-.41,1.63-.23-.01-.43,.06-.61,.21-.21,.18-.38,.51-.74,.29-.29-.19-.27-.51-.25-.8,.15-2.02,.17-4.02,.04-6.05-.12-1.93-.47-3.79-1.06-5.59-.85-2.63-2.59-4.7-4.7-6.4-2.81-2.26-6.09-3.23-9.7-3.16-1.23,.02-2.46-.18-3.69-.19-.79,0-1.05-.38-1.06-1.07,0-.77,.02-1.55-.01-2.32-.03-.84-.47-1.02-1.17-.63-.84,.46-1.66,.94-2.5,1.41-.26,.15-.57,.27-.82,.04-.27-.24-.11-.54-.02-.82,.77-2.51,2.57-4.25,4.48-5.88,.63-.54,1.29-1.09,2.12-1.37,.6-.2,.26-.56,.14-.88,0-.2,0-.4,0-.6,.47,.15,.47,.59,.41,.91-.32,1.57,.58,2.49,1.74,3.22,.92,.58,1.89,1.13,2.98,1.38Z"/>
      <path class="cls-11" d="M66.32,82.5c1.64,.5,2.95,1.62,4.46,2.36,1.41,.69,2.66,1.66,4.2,2.13,1.08,.33,1.81,1.34,2.86,1.8,3.48,1.52,6.65,3.6,9.91,5.53,.58,.35,1.04,.79,1.28,1.44,.79,2.18,1.89,4.2,3,6.22-.14-.04-.3-.05-.42-.12-2.66-1.8-5.6-3.09-8.39-4.67-3.46-1.95-6.97-3.82-10.42-5.78-.81-.46-1.62-1.07-2.66-.95-2.01-2.3-3.25-4.97-3.84-7.96Z"/>
      <path class="cls-1" d="M131.02,39.73c.54-.47,1.14-.85,1.82-1.09,.56,.4,1.08,.86,1.68,1.19,5.55,2.98,11.13,5.89,16.65,8.92,1.33,.73,2.84,1.25,3.82,2.54-2,1.42-3.65,3.21-5.3,4.98-2.97,3.2-5.24,6.88-6.62,11.01-1.82,5.45-2.6,11.03-1.87,16.81,.46,3.7,1.67,7.03,3.87,10.02,2.79,3.81,6.6,5.93,11.27,6.29,3.81,.29,7.43-.7,10.84-2.39,.42-.21,.82-.51,1.34-.44-.33,.7-1.43,.62-1.55,1.53,0,0-.03,.02-.03,.02-.07,0-.13,.01-.2,.04-.07,.06-.14,.12-.22,.19,0,0,0,0,0,0-.59-.13-1,.39-1.55,.42-.42-.34-.77,.04-1.12,.15-2.26,.7-4.56,1.26-6.92,1.16-3.45-.14-6.66-1.13-9.37-3.36-2.27-1.86-4.15-4.1-5.37-6.76-2.46-5.37-2.54-11.08-1.76-16.77,.77-5.66,2.8-10.91,6.46-15.42,.28-.35,.66-.73,.56-1.28h0c.6-.26,.67-.95,1.13-1.32,.77-.63,1.65-1.13,2.2-2,.33,0,.53-.22,.75-.42,1.23-1.12,1.2-1.24-.34-2.04-1.4-.72-2.8-1.46-4.19-2.21-4.85-2.61-9.72-5.19-14.54-7.88-.68-.38-1.85-.4-1.87-1.62,0,0,.05-.03,.05-.03,.18,0,.33-.05,.38-.25Z"/>
      <path class="cls-27" d="M109.76,56.66c0,.2,0,.4,0,.6-.98-.02-1.61,.7-2.32,1.18-2.95,2-5.58,4.37-7.44,7.42-1.45,2.37-2.88,4.76-3.83,7.41-1.16,3.22-2.11,6.5-2.52,9.88-.57,4.74-.56,9.47,1.47,13.94,2.14,4.72,5.54,8,10.78,9,3.81,.73,7.45-.06,10.95-1.58,3.2-1.39,5.77-3.64,8.16-6.13,.34-.36,.61-.87,1.23-.83-.86,1.87-2.26,3.34-3.64,4.82-.06,.08-.12,.16-.18,.25,0,0,0,0,0,0-.07,.07-.14,.14-.21,.21,0,0,0,0,0,0-.07,.07-.14,.14-.21,.21,0,0-.01,.01-.01,.01-.07,.07-.14,.14-.21,.21,0,0-.01,.01-.01,.01-.07,.07-.14,.14-.21,.21,0,0-.02,.02-.02,.02-.07,.07-.14,.14-.2,.2,0,0-.02,.02-.02,.02-.22,.07-.44,.14-.67,.21-.3-.01-.56,.09-.82,.26-.77,.5-1.51,1.14-2.36,1.4-2.2,.67-4.36,1.44-6.69,1.74-5.05,.64-9.35-.71-13-4.22-4.11-3.96-5.54-9.04-5.92-14.51-.18-2.57,.08-5.13,.43-7.68,.35-2.56,.96-5.08,1.92-7.44,1.83-4.53,4.43-8.61,8.07-11.96,.29-.27,.66-.51,.65-.98,.23-.29,.7-.4,.68-.88,.94-.2,1.7-.74,2.42-1.33,1.27-.41,2.23-1.45,3.55-1.77,.07,.02,.14,.04,.2,.07Z"/>
      <path class="cls-27" d="M168.52,97.56c-.52-.07-.92,.23-1.34,.44-3.42,1.69-7.03,2.69-10.84,2.39-4.67-.36-8.47-2.49-11.27-6.29-2.19-2.99-3.4-6.32-3.87-10.02-.73-5.78,.05-11.36,1.87-16.81,1.38-4.13,3.65-7.81,6.62-11.01,1.65-1.78,3.31-3.57,5.3-4.98,1.17-.58,2.35-1.16,3.52-1.75,.23,.16,.49,.31,.22,.64-1.98,.78-3.6,2.1-5.14,3.51-4.8,4.4-7.77,9.9-9.55,16.1-1.15,4.01-1.86,8.08-1.68,12.26,.21,4.81,1.41,9.34,4.86,12.89,3.63,3.73,8.12,5.06,13.3,4.16,3.56-.62,6.77-2.02,9.56-4.25,1.48-1.18,3-2.38,4.17-3.92,.26-.35,.53-.48,.93-.43-.66,1.21-1.45,2.34-2.38,3.36-.03,.04-.06,.08-.07,.13,0,0-.02,.05-.02,.05-.35,.17-.64,.39-.64,.83,0,0-.06,.07-.05,.07-.05,.06-.11,.11-.16,.17,0,0-.04,.04-.04,.04-.06,.06-.12,.13-.19,.19,0,0-.03,.03-.03,.03-.06,.06-.13,.13-.19,.19,0,0-.03,.03-.03,.03-.06,.06-.13,.13-.19,.19,0,0-.03,.03-.03,.03-.06,.06-.13,.13-.19,.19,0,0-.03,.03-.03,.03-.06,.06-.13,.12-.19,.19,0,0-.04,.03-.04,.03-.33-.03-.52,.15-.67,.41-.06,.08-.13,.17-.19,.25,0,0,0,0,0,0-.3-.01-.46,.13-.45,.43h0c-.15,0-.29,0-.44,0-.36-.31-.4-.04-.43,.24h0Z"/>
      <path class="cls-28" d="M109.56,56.59c-1.32,.32-2.28,1.36-3.55,1.77,0-.46-.34-.6-.67-.78-4.21-2.28-8.44-4.54-12.62-6.87-2.97-1.66-6.08-3.09-8.9-5.01,.8-.68,1.8-.99,2.73-1.42,.54-.25,1,.09,1.45,.33,5.25,2.83,10.51,5.65,15.75,8.5,1.99,1.08,4.05,2.04,5.82,3.48Z"/>
      <path class="cls-28" d="M158.52,49.53c-1.18,.58-2.35,1.16-3.52,1.75-.98-1.29-2.49-1.81-3.82-2.54-5.52-3.03-11.1-5.94-16.65-8.92-.6-.32-1.13-.79-1.68-1.19,.72-.66,1.65-.95,2.5-1.36,.38-.19,.69-.05,1.03,.14,7.12,3.81,14.24,7.61,21.36,11.42,.31,.17,.71,.25,.78,.69Z"/>
      <path class="cls-25" d="M150.78,54.16c-.55,.87-1.43,1.37-2.2,2-2.66-1.93-5.69-3.2-8.54-4.79-4.13-2.31-8.35-4.48-12.52-6.74-.51-.28-1.21-.49-1.14-1.31,0,0,.02-.02,.02-.02,.07-.07,.14-.15,.21-.22,0,0,0,0,0,0,.07-.07,.15-.14,.22-.22,.51-.56,1.1-1.03,1.76-1.41,.17,1.01,1.09,1.23,1.8,1.62,3.26,1.77,6.54,3.5,9.81,5.25,1.62,.86,3.28,1.65,4.86,2.58,1.89,1.11,3.92,2,5.73,3.26Z"/>
      <path class="cls-1" d="M102.9,60.57c0,.47-.36,.71-.65,.98-3.64,3.35-6.24,7.43-8.07,11.96-.95,2.36-1.57,4.88-1.92,7.44-.35,2.55-.61,5.11-.43,7.68,.38,5.47,1.81,10.55,5.92,14.51,3.64,3.51,7.95,4.86,13,4.22,2.33-.3,4.49-1.06,6.69-1.74,.85-.26,1.59-.9,2.36-1.4,.26-.17,.52-.27,.82-.26-.07,.1-.13,.21-.2,.31-.7,.88-1.7,1.35-2.64,1.9-.09,.08-.17,.16-.26,.23,0,0,0,0,0,0-1.38,.08-2.46,1.04-3.78,1.3-1.44-.03-2.8,.62-4.26,.48-.26-.02-.41,.14-.27,.43,.01,.04,.04,.08,.07,.1-.63-.01-1.26-.02-1.89-.03-.06-.49-.42-.5-.81-.52-2.27-.12-4.37-.78-6.33-1.95-.71-.42-1.3-1.09-2.2-1.19-.28-.81-1.01-1.25-1.58-1.81-3.13-3.11-4.77-6.98-5.49-11.2-.56-3.33-.48-6.74-.07-10.12,.5-4.12,1.69-8.01,3.66-11.68,.62-1.15,1.62-2.1,1.88-3.45l.47-.85c.65-.4,1.06-1.02,1.53-1.58,.58-.31,.9-.87,1.33-1.33,.68-.5,1.27-1.1,1.78-1.77,.57,.03,.75-.7,1.32-.67Z"/>
      <path class="cls-1" d="M83.81,45.7c2.82,1.93,5.93,3.36,8.9,5.01,4.18,2.33,8.41,4.58,12.62,6.87,.33,.18,.68,.33,.67,.78-.72,.6-1.48,1.14-2.42,1.33-4.02-2.52-8.31-4.56-12.45-6.87-2.72-1.52-5.49-2.96-8.22-4.46-.55-.3-1.26-.58-1.06-1.46,.59-.5,1.23-.92,1.96-1.2Z"/>
      <path class="cls-4" d="M123.3,46.42c.54-.81,1.22-1.48,1.97-2.09,0,.49,.33,.69,.71,.88,1.02,.5,1.98,1.11,2.99,1.63,4.07,2.11,8.11,4.28,12.13,6.48,1.74,.95,3.46,1.94,5.22,2.85,.51,.26,1.23,.46,1.13,1.31,0,0,0,0,0,0-.51,.44-1.02,.89-1.54,1.33-2.87-1.54-5.73-3.09-8.6-4.62-4.4-2.35-8.8-4.7-13.21-7.04-.33-.18-.63-.37-.8-.72Z"/>
      <path class="cls-9" d="M81.85,46.9c-.2,.89,.51,1.16,1.06,1.46,2.73,1.51,5.5,2.94,8.22,4.46,4.14,2.31,8.43,4.35,12.45,6.87,.02,.48-.46,.59-.68,.88-.57-.03-.75,.7-1.32,.67-.33-.24-.63-.51-.99-.7-4.89-2.64-9.82-5.22-14.67-7.92-2.25-1.25-4.62-2.31-6.73-3.8,.8-.77,1.7-1.39,2.67-1.92Z"/>
      <path class="cls-4" d="M98.47,64.34c-.47,.57-.88,1.19-1.53,1.58-.02-.43-.32-.62-.66-.8-6.38-3.33-12.61-6.93-19.01-10.21-.89-.45-1.88-.84-2.53-1.69,.29-.8,.92-1.3,1.54-1.81,.14,.16,.24,.39,.42,.49,1.72,.99,3.44,1.98,5.18,2.92,4.78,2.59,9.59,5.12,14.34,7.77,.8,.45,1.98,.57,2.26,1.74Z"/>
      <path class="cls-9" d="M150.78,54.16c-1.81-1.26-3.83-2.15-5.73-3.26-1.58-.93-3.24-1.72-4.86-2.58-3.27-1.74-6.55-3.47-9.81-5.25-.71-.39-1.63-.61-1.8-1.62,.59-.59,1.26-1.07,2.01-1.44,.02,1.21,1.19,1.24,1.87,1.62,4.81,2.68,9.68,5.27,14.54,7.88,1.39,.75,2.79,1.48,4.19,2.21,1.54,.79,1.56,.92,.34,2.04-.22,.2-.42,.42-.75,.42Z"/>
      <path class="cls-25" d="M79.19,48.82c2.12,1.49,4.48,2.55,6.73,3.8,4.86,2.7,9.78,5.28,14.67,7.92,.35,.19,.66,.46,.99,.7-.51,.67-1.1,1.27-1.78,1.77,0-.45-.34-.6-.67-.78-3.16-1.72-6.31-3.46-9.47-5.17-3.74-2.03-7.49-4.05-11.25-6.04-.48-.25-.6-.59-.57-1.06,0,0,.02-.02,.02-.02,.07-.06,.13-.13,.2-.19,.33-.37,.68-.71,1.13-.92Z"/>
      <path class="cls-12" d="M71.4,57.37c.18-.58,.58-1.01,.99-1.44,.21,.06,.44,.07,.62,.17,2.4,1.28,4.79,2.57,7.17,3.87,2.73,1.5,5.45,3.03,8.18,4.51,2.25,1.22,4.52,2.41,6.78,3.62-.44,.67-.89,1.33-1.33,2-.17-.35-.46-.55-.79-.73-6.44-3.47-12.89-6.92-19.3-10.44-.81-.44-1.8-.68-2.33-1.56Z"/>
      <path class="cls-14" d="M74.73,53.23c.65,.84,1.64,1.24,2.53,1.69,6.41,3.27,12.64,6.88,19.01,10.21,.34,.18,.64,.37,.66,.8-.16,.28-.31,.57-.47,.85-.29,.22-.58,.45-.88,.67-.34-.52-.89-.75-1.4-1.03-5.49-2.97-11-5.9-16.47-8.92-1.53-.85-3.18-1.52-4.53-2.68,.37-.66,.97-1.1,1.53-1.58Z"/>
      <path class="cls-14" d="M123.3,46.42c.17,.35,.47,.55,.8,.72,4.41,2.34,8.81,4.69,13.21,7.04,2.87,1.53,5.73,3.08,8.6,4.62-.48,.7-.84,1.48-1.54,2.01-.02-.44-.33-.61-.67-.79-1.63-.87-3.25-1.74-4.87-2.62-2.58-1.4-5.16-2.82-7.75-4.22-3.07-1.66-6.23-3.18-9.18-5.05,.33-.68,.88-1.18,1.4-1.72Z"/>
      <path class="cls-20" d="M70.16,90.46c1.04-.12,1.85,.48,2.66,.95,3.45,1.97,6.96,3.83,10.42,5.78,2.79,1.57,5.72,2.87,8.39,4.67,.11,.08,.28,.08,.42,.12,1.32,1.41,2.65,2.82,3.97,4.23-2.88-1.55-5.77-3.09-8.63-4.66-4.13-2.26-8.26-4.52-12.37-6.83-1.91-1.07-3.56-2.47-4.85-4.26Z"/>
      <path class="cls-12" d="M120.17,50.59c.25-.59,.63-1.09,1.05-1.56,1.13,.27,2.07,.94,3.08,1.46,2.94,1.53,5.81,3.18,8.72,4.76,3.16,1.71,6.36,3.38,9.51,5.11,.51,.28,1.21,.41,1.4,1.13-.27,.59-.48,1.22-1.07,1.58-.08-.48-.39-.76-.81-.98-2.31-1.22-4.62-2.44-6.92-3.68-4.08-2.21-8.14-4.45-12.24-6.64-.87-.46-1.69-1.07-2.72-1.17Z"/>
      <path class="cls-10" d="M77.84,49.95c-.03,.47,.09,.81,.57,1.06,3.76,2,7.5,4.01,11.25,6.04,3.16,1.71,6.31,3.45,9.47,5.17,.33,.18,.67,.33,.67,.78-.43,.46-.75,1.02-1.33,1.33-.28-1.18-1.46-1.3-2.26-1.74-4.75-2.65-9.56-5.18-14.34-7.77-1.74-.94-3.46-1.94-5.18-2.92-.17-.1-.28-.32-.42-.49,.43-.58,.95-1.08,1.56-1.46Z"/>
      <path class="cls-20" d="M129.33,90.48c.45-.47,.42-1.05,.41-1.63,0-.35-.1-.75,.37-.92,0,.57,.37,.8,.82,1.04,1.27,.67,2.48,1.45,3.77,2.07,1.92,.92,3.66,2.2,5.66,2.96,1.11,1.23,1.98,2.67,3.22,3.8,.43,.39,1.18,.52,1.21,1.3-3.72-1.99-7.42-4.01-11.16-5.96-1.42-.74-2.68-1.82-4.34-2.04,.01-.21,.02-.41,.03-.62Z"/>
      <path class="cls-10" d="M147.45,57.47c.1-.84-.62-1.05-1.13-1.31-1.77-.9-3.48-1.9-5.22-2.85-4.02-2.2-8.06-4.37-12.13-6.48-1.01-.52-1.97-1.13-2.99-1.63-.38-.19-.72-.38-.71-.88,.31-.41,.63-.81,1.12-1.02-.08,.83,.63,1.04,1.14,1.31,4.17,2.26,8.38,4.42,12.52,6.74,2.85,1.59,5.88,2.86,8.54,4.79-.45,.37-.53,1.07-1.13,1.32Z"/>
      <path class="cls-11" d="M120.17,50.59c1.03,.11,1.86,.71,2.72,1.17,4.09,2.19,8.15,4.43,12.24,6.64,2.3,1.24,4.61,2.46,6.92,3.68,.42,.22,.73,.5,.8,.98-.09,.31-.19,.62-.46,.84-1.51-1.41-3.48-2.03-5.24-3.01-5.61-3.14-11.29-6.17-16.95-9.23-.18-.1-.42-.11-.63-.16,.12-.35,.3-.66,.59-.91Z"/>
      <path class="cls-2" d="M73.2,54.81c1.35,1.16,3,1.84,4.53,2.68,5.46,3.02,10.98,5.95,16.47,8.92,.51,.28,1.06,.51,1.4,1.03-.02,.31-.15,.54-.44,.66-2.26-1.2-4.53-2.39-6.78-3.62-2.74-1.49-5.45-3.02-8.18-4.51-2.38-1.3-4.78-2.59-7.17-3.87-.19-.1-.41-.12-.62-.17,.19-.43,.47-.79,.81-1.11Z"/>
      <path class="cls-11" d="M71.4,57.37c.53,.89,1.52,1.12,2.33,1.56,6.41,3.52,12.86,6.97,19.3,10.44,.33,.18,.62,.39,.79,.73-.15,.22-.29,.44-.44,.66-2.12-1.17-4.23-2.35-6.36-3.5-5.1-2.78-10.24-5.47-15.26-8.39-.36-.21-.74-.32-1.16-.28,.19-.46,.45-.87,.79-1.22Z"/>
      <path class="cls-2" d="M143.92,61.48c-.19-.72-.89-.85-1.4-1.13-3.15-1.74-6.34-3.4-9.51-5.11-2.91-1.58-5.78-3.23-8.72-4.76-1-.52-1.95-1.19-3.08-1.46,.16-.35,.38-.65,.68-.89,2.96,1.87,6.11,3.39,9.18,5.05,2.59,1.4,5.16,2.82,7.75,4.22,1.62,.88,3.24,1.75,4.87,2.62,.34,.18,.65,.35,.67,.79-.03,.3-.18,.53-.45,.67Z"/>
      <path class="cls-14" d="M159.25,101.96c-.01-.14-.03-.29-.04-.43,1.64-.3,3.22-.89,4.89-1.08,0,.04,0,.08,.01,.12-1.55,.7-3.15,1.24-4.86,1.39Z"/>
      <path class="cls-4" d="M109.22,108.62c-.14-.29,.01-.45,.27-.43,1.46,.14,2.82-.51,4.26-.48-.07,.14-.14,.28-.22,.42-.14,.02-.28,.03-.42,.05-1-.08-1.9,.57-2.91,.43h-.23c-.26,0-.51,0-.77,0Z"/>
      <path class="cls-20" d="M110.22,108.62c1.01,.14,1.9-.51,2.91-.43-1.37,.82-2.92,.93-4.46,1.06,.14-.26,.61-.11,.63-.51-.03-.03-.06-.06-.07-.11,.26,0,.51,0,.77,0,.08,.15,.16,.14,.23,0Z"/>
      <path class="cls-14" d="M113.54,108.14c.07-.14,.14-.28,.22-.42,1.32-.26,2.4-1.22,3.78-1.3-1.23,.8-2.52,1.49-4,1.73Z"/>
      <path class="cls-20" d="M103.08,109.08c1.78,.13,3.55,.25,5.34,.19-1.79,.35-3.57,.3-5.34-.19Z"/>
      <path class="cls-10" d="M168.96,97.32c.15,0,.29,0,.44,.01-.68,.77-1.54,1.27-2.43,1.75,.13-.91,1.22-.83,1.55-1.53,0,0,0,0,0,0,.18,0,.35-.06,.43-.24Z"/>
      <path class="cls-4" d="M164.97,99.75c.55-.03,.96-.56,1.55-.42-.5,.45-1.11,.72-1.75,.91,0,0-.04-.04-.04-.04,.08-.15,.16-.29,.23-.44Z"/>
      <path class="cls-20" d="M101.3,108.64c.51-.07,.99,0,1.38,.38-.49,0-.96-.1-1.38-.38Z"/>
      <path class="cls-11" d="M65.71,78.74c.32,.42,.13,.9,.16,1.35-.29-.42-.17-.89-.16-1.35Z"/>
      <path class="cls-9" d="M120.43,104.28c.07-.1,.13-.21,.2-.31,.22-.07,.44-.14,.67-.21-.2,.32-.45,.55-.86,.52Z"/>
      <path class="cls-28" d="M172.08,94.85c0-.44,.29-.66,.64-.83-.05,.4-.34,.62-.64,.83Z"/>
      <path class="cls-28" d="M170.04,96.64c.15-.26,.34-.44,.67-.41-.15,.25-.35,.45-.63,.55-.02-.05-.03-.09-.04-.14Z"/>
      <path class="cls-11" d="M65.93,80.51c.27,.26,.16,.59,.17,.9-.21-.27-.21-.58-.17-.9Z"/>
      <path class="cls-10" d="M169.41,97.33c0-.31,.15-.44,.45-.43-.04,.26-.23,.37-.45,.43Z"/>
      <path class="cls-11" d="M66.15,81.84c.21,.18,.17,.42,.16,.66-.18-.19-.21-.41-.16-.66Z"/>
      <path class="cls-20" d="M99.35,107.96c.18-.02,.34,.01,.45,.19-.19,.03-.34-.02-.45-.19Z"/>
      <path class="cls-20" d="M146.38,99.97c.18,0,.33,.05,.41,.23-.19,.01-.32-.07-.41-.23Z"/>
      <path class="cls-20" d="M146.8,100.2c.19-.01,.34,.04,.43,.22-.19,0-.34-.04-.43-.22Z"/>
      <path class="cls-4" d="M164.77,100.23c-.1,.18-.27,.2-.45,.21,0,0-.03-.03-.03-.03,.1-.18,.26-.21,.44-.22l.04,.04Z"/>
      <path class="cls-20" d="M150.06,101.56c.2-.04,.38-.02,.5,.17-.2,.03-.38,0-.5-.17Z"/>
      <path class="cls-9" d="M131.02,39.73c-.05,.2-.2,.25-.38,.25,.13-.08,.25-.17,.38-.25Z"/>
      <path class="cls-20" d="M148.13,100.87c.18-.02,.33,.02,.43,.18-.18,.02-.33-.02-.43-.18Z"/>
      <path class="cls-20" d="M148.73,101.12c.2-.03,.38-.01,.5,.18-.2,.03-.38,0-.5-.18Z"/>
      <path class="cls-27" d="M175.18,90.49c0-.2,.03-.38,.26-.45-.05,.17-.04,.37-.26,.45Z"/>
      <path class="cls-20" d="M98.88,107.75c.2-.02,.37,.01,.47,.22-.19,0-.36-.04-.47-.22Z"/>
      <path class="cls-10" d="M126.83,42.86c-.07,.07-.15,.14-.22,.22,.07-.07,.15-.14,.22-.22Z"/>
      <path class="cls-10" d="M126.61,43.07c-.07,.07-.14,.15-.21,.22,.07-.07,.14-.15,.21-.22Z"/>
      <path class="cls-10" d="M78.05,49.75c-.07,.06-.13,.13-.2,.19,.07-.06,.13-.13,.2-.19Z"/>
      <path class="cls-11" d="M65.7,78.07c.03,.05,.06,.1,.07,.15,0,.01-.04,.04-.07,.06,0-.07,0-.14,0-.21Z"/>
      <path class="cls-10" d="M170.04,96.64c0,.05,.02,.1,.04,.14-.08,.04-.15,.07-.23,.11,.06-.08,.13-.17,.19-.25Z"/>
      <path class="cls-28" d="M170.75,96.2c.06-.06,.13-.12,.19-.19-.06,.06-.13,.12-.19,.19Z"/>
      <path class="cls-28" d="M170.97,95.99c.06-.06,.13-.13,.19-.19-.06,.06-.13,.13-.19,.19Z"/>
      <path class="cls-27" d="M126.42,97.39c.06-.09,.12-.19,.18-.28-.06,.09-.12,.19-.18,.28Z"/>
      <path class="cls-20" d="M144.79,99.1c.07,.05,.15,.1,.22,.15-.13,.03-.2-.03-.22-.15Z"/>
      <path class="cls-4" d="M166.53,99.32c.07-.06,.14-.12,.22-.19,0,0,.01,.08,.01,.08-.08,.04-.15,.07-.23,.11Z"/>
      <path class="cls-9" d="M122.42,102.64c.06-.08,.12-.16,.18-.25,.02,.14-.05,.22-.18,.25Z"/>
      <path class="cls-9" d="M122.19,102.86c.07-.07,.14-.14,.21-.21-.07,.07-.14,.14-.21,.21Z"/>
      <path class="cls-9" d="M121.97,103.08c.07-.07,.14-.14,.21-.21-.07,.07-.14,.14-.21,.21Z"/>
      <path class="cls-9" d="M121.75,103.3c.07-.07,.14-.14,.21-.21-.07,.07-.14,.14-.21,.21Z"/>
      <path class="cls-9" d="M121.53,103.52c.07-.07,.14-.14,.21-.21-.07,.07-.14,.14-.21,.21Z"/>
      <path class="cls-9" d="M121.31,103.74c.07-.07,.14-.14,.2-.2-.07,.07-.14,.14-.2,.2Z"/>
      <path class="cls-20" d="M147.67,100.65c.07,.04,.15,.09,.22,.13-.07-.04-.15-.09-.22-.13Z"/>
      <path class="cls-4" d="M164.11,100.57s-.02-.08-.01-.12c.07-.02,.13-.04,.2-.04,0,0,.03,.03,.03,.03-.07,.04-.14,.08-.22,.13Z"/>
      <path class="cls-20" d="M147.24,100.43c.07,.04,.14,.09,.21,.13-.07-.04-.14-.09-.21-.13Z"/>
      <path class="cls-28" d="M172.74,93.97s.04-.09,.07-.13c0,.06-.02,.1-.07,.13Z"/>
      <path class="cls-20" d="M96,106.2c.08,.05,.16,.1,.24,.15-.13,.02-.21-.03-.24-.15Z"/>
      <path class="cls-14" d="M117.53,106.41c.09-.08,.17-.16,.26-.23-.09,.08-.17,.16-.26,.23Z"/>
      <path class="cls-20" d="M96.42,106.43c.09,.05,.18,.1,.28,.15-.13,.02-.23-.02-.28-.15Z"/>
      <path class="cls-20" d="M146.07,99.79c.09,.06,.19,.11,.28,.17-.09-.06-.19-.11-.28-.17Z"/>
      <path class="cls-28" d="M171.42,95.55c.06-.06,.13-.13,.19-.19-.06,.06-.13,.13-.19,.19Z"/>
      <path class="cls-20" d="M97.27,106.88c.1,.06,.21,.12,.31,.18-.1-.06-.21-.12-.31-.18Z"/>
      <path class="cls-20" d="M97.59,107.07c.07,.05,.14,.09,.21,.14-.07-.05-.14-.09-.21-.14Z"/>
      <path class="cls-20" d="M98.01,107.3c.08,.05,.15,.1,.23,.15-.13,.03-.2-.03-.23-.15Z"/>
      <path class="cls-20" d="M98.44,107.53c.08,.05,.17,.09,.25,.14-.08-.05-.17-.09-.25-.14Z"/>
      <path class="cls-20" d="M145.63,99.57c.09,.05,.18,.1,.28,.15-.13,.02-.23-.02-.28-.15Z"/>
      <path class="cls-28" d="M171.86,95.09c.05-.06,.11-.11,.16-.17-.05,.06-.11,.11-.16,.17Z"/>
      <path class="cls-28" d="M171.64,95.32c.06-.06,.12-.13,.19-.19-.06,.06-.12,.13-.19,.19Z"/>
      <path class="cls-20" d="M149.39,101.34c.09,.04,.19,.09,.28,.13-.09-.04-.19-.09-.28-.13Z"/>
      <path class="cls-20" d="M99.96,108.2c.09,.04,.18,.09,.28,.13-.09-.04-.18-.09-.28-.13Z"/>
      <path class="cls-28" d="M171.19,95.77c.06-.06,.13-.13,.19-.19-.06,.06-.13,.13-.19,.19Z"/>
      <path class="cls-20" d="M100.62,108.43c.09,.04,.19,.09,.28,.13-.09-.04-.19-.09-.28-.13Z"/>
      <path class="cls-20" d="M145.21,99.34c.08,.05,.17,.1,.25,.15-.08-.05-.17-.1-.25-.15Z"/>
      <path class="cls-10" d="M166.76,99.22s-.01-.08-.01-.08c.06-.02,.13-.04,.2-.04-.06,.04-.12,.07-.18,.11Z"/>
      <path class="cls-20" d="M96.86,106.65c.09,.06,.18,.11,.28,.17-.09-.06-.18-.11-.28-.17Z"/>
      <path class="cls-4" d="M93.38,70.76c.15-.22,.29-.44,.44-.66,.44-.67,.89-1.33,1.33-2,.29-.12,.43-.35,.44-.66,.29-.22,.58-.45,.88-.67-.26,1.35-1.26,2.29-1.88,3.45-1.97,3.67-3.16,7.56-3.66,11.68-.41,3.38-.49,6.79,.07,10.12,.71,4.22,2.36,8.1,5.49,11.2,.57,.56,1.29,1,1.58,1.81l-.05,.05c-.21-.01-.42-.02-.63-.03-.92-.79-1.89-1.52-2.48-2.62,0-.43-.22-.65-.64-.69-.08-.14-.16-.28-.24-.43,0-.28-.14-.44-.42-.46-.01-.06-.02-.13-.03-.19-.05-.42-.14-.8-.63-.91-.09-.21-.17-.42-.26-.63-.12-.55-.22-1.11-.83-1.37-.02-.2-.05-.41-.07-.61-.44-1.75-1.14-3.43-1.33-5.24-.02-.21-.2-.29-.38-.34,0-.14,0-.28,0-.42,.23-.5,.46-.99-.2-1.35,0-.29-.01-.57-.02-.86,.32-1.4,.31-2.8,0-4.2,0-.29,0-.58,0-.86,.66-.45,.47-1,.21-1.57,0-.21,.01-.43,.02-.64,.52-.2,.49-.53,.2-.91,0-.14,.01-.28,.02-.42,.41-.13,.52-.35,.2-.69,0-.14,.02-.28,.02-.42,.57-.32,.54-.82,.42-1.35,0-.14,.01-.28,.02-.42,.25-.08,.51-.16,.19-.47,0-.14,.02-.28,.03-.42,1.05-1.65,1.5-3.54,2.16-5.35,0-.14,.02-.29,.02-.43Z"/>
      <path class="cls-4" d="M98.06,105.03c.89,.1,1.49,.77,2.2,1.19,1.96,1.17,4.06,1.83,6.33,1.95,.39,.02,.75,.03,.81,.52-1.76,.02-3.47-.27-5.15-.75-.03-.29-.17-.44-.48-.4-1.43-.33-2.59-1.17-3.74-2.03,0-.14,0-.29-.01-.43l.05-.05Z"/>
      <path class="cls-2" d="M90.08,91.55c.18,.05,.36,.13,.38,.34,.19,1.81,.89,3.5,1.33,5.24-.14-.1-.36-.17-.41-.31-.66-1.7-1.21-3.43-1.29-5.27Z"/>
      <path class="cls-2" d="M93.35,71.19c-.66,1.81-1.1,3.7-2.16,5.35,.46-1.89,.84-3.81,2.16-5.35Z"/>
      <path class="cls-2" d="M89.86,84.71c.31,1.4,.32,2.8,0,4.2-.38-1.4-.39-2.8,0-4.2Z"/>
      <path class="cls-2" d="M90.07,82.28c.26,.57,.45,1.13-.21,1.57,.02-.53-.24-1.1,.21-1.57Z"/>
      <path class="cls-2" d="M89.87,89.77c.66,.36,.43,.86,.2,1.35-.43-.4-.2-.89-.2-1.35Z"/>
      <path class="cls-2" d="M91.86,97.75c.61,.26,.71,.82,.83,1.37-.64-.24-.73-.8-.83-1.37Z"/>
      <path class="cls-2" d="M90.95,77.85c.12,.53,.15,1.04-.42,1.35-.07-.52,.07-.97,.42-1.35Z"/>
      <path class="cls-2" d="M90.29,80.73c.29,.38,.32,.71-.2,.91-.03-.32-.15-.67,.2-.91Z"/>
      <path class="cls-2" d="M92.95,99.75c.49,.11,.58,.5,.63,.91-.5-.1-.6-.49-.63-.91Z"/>
      <path class="cls-2" d="M94.27,101.75c.42,.04,.64,.26,.64,.69-.41-.05-.64-.26-.64-.69Z"/>
      <path class="cls-2" d="M90.51,79.62c.32,.34,.22,.56-.2,.69-.04-.26-.09-.52,.2-.69Z"/>
      <path class="cls-2" d="M98.01,105.09c0,.14,0,.29,.01,.43-.32,0-.55-.15-.64-.46,.21,0,.42,.02,.63,.03Z"/>
      <path class="cls-2" d="M101.76,107.55c.31-.04,.45,.11,.48,.4-.28,.02-.43-.13-.48-.4Z"/>
      <path class="cls-2" d="M91.17,76.96c.31,.31,.06,.39-.19,.47-.04-.2-.01-.37,.19-.47Z"/>
      <path class="cls-2" d="M93.61,100.86c.28,.03,.42,.18,.42,.46-.29-.02-.44-.17-.42-.46Z"/>
      <path class="cls-10" d="M164.3,100.41c-.07,0-.14,.02-.2,.04-1.67,.19-3.25,.78-4.89,1.08-1.7,.4-3.4,.26-5.1,.02-.1-.2-.26-.24-.47-.17-2.52-.28-4.67-1.4-6.65-2.93-.17-.38-.41-.66-.87-.67-.6-.73-1.26-1.4-2-2-.01-.45-.29-.7-.67-.87-.07-.08-.15-.15-.22-.23,.01-.29-.13-.44-.41-.48,0-.06-.02-.12-.04-.18-.66-1.59-1.68-3-2.23-4.65-1.38-4.18-1.75-8.43-1.35-12.82,.33-3.59,1.18-7.01,2.49-10.35,.26-.67,.78-1.27,.68-2.07,.01-.07,.02-.14,.02-.22,.27-.22,.36-.53,.46-.84,.59-.37,.8-.99,1.07-1.58,.27-.14,.42-.36,.45-.66,.7-.53,1.06-1.31,1.54-2.01,.51-.44,1.03-.89,1.54-1.33,.1,.55-.27,.93-.56,1.28-3.66,4.52-5.68,9.77-6.46,15.42-.78,5.68-.7,11.4,1.76,16.77,1.22,2.66,3.1,4.9,5.37,6.76,2.71,2.23,5.92,3.22,9.37,3.36,2.36,.09,4.66-.47,6.92-1.16,.35-.11,.7-.48,1.12-.15-.08,.15-.16,.29-.23,.44-.18,.02-.35,.05-.44,.22Z"/>
      <path class="cls-11" d="M140.36,94.01c-2-.76-3.74-2.04-5.66-2.96-1.29-.62-2.5-1.4-3.77-2.07-.46-.24-.83-.47-.82-1.04,.1-1.52,.21-3.04,.32-4.55,1.5,1.16,3.17,1.99,4.89,2.79,1.48,.68,2.82,1.77,3.2,3.65,.3,1.51,1.35,2.75,1.85,4.2Z"/>
      <path class="cls-12" d="M142.37,64.12c.11,.8-.41,1.4-.68,2.07-1.3,3.34-2.16,6.76-2.49,10.35-.4,4.39-.03,8.64,1.35,12.82,.55,1.65,1.57,3.06,2.23,4.65-.23-.01-.43-.1-.56-.3-1.56-2.56-2.66-5.29-3.2-8.25-.48-2.62-.61-5.26-.39-7.88,.37-4.5,1.12-8.94,3.28-13.01,.11-.2,.24-.37,.46-.45Z"/>
      <path class="cls-12" d="M146.12,97.78c.46,0,.7,.29,.87,.67-.47,0-.83-.12-.87-.67Z"/>
      <path class="cls-12" d="M143.46,94.91c.38,.17,.66,.42,.67,.87-.55-.04-.68-.4-.67-.87Z"/>
      <path class="cls-12" d="M142.83,94.2c.28,.04,.42,.2,.41,.48-.3-.02-.44-.18-.41-.48Z"/>
      <path class="cls-12" d="M153.64,101.38c.2-.07,.36-.03,.47,.17-.29,.31-.38,.08-.47-.17Z"/>
      <path class="cls-1" d="M168.96,97.32c-.09,.18-.25,.23-.43,.24,.03-.28,.07-.56,.43-.24Z"/>
      <path class="cls-2" d="M110.22,108.62c-.07,.15-.15,.15-.23,0,.08,0,.15,0,.23,0Z"/>
    </g>
  </g>
</svg>