<?xml version="1.0" encoding="utf-8"?>
<!-- Generator: Adobe Illustrator 27.0.0, SVG Export Plug-In . SVG Version: 6.00 Build 0)  -->
<svg version="1.1" id="Layer_1" xmlns="http://www.w3.org/2000/svg" xmlns:xlink="http://www.w3.org/1999/xlink" x="0px" y="0px"
	 viewBox="0 0 70 70" style="enable-background:new 0 0 70 70;" xml:space="preserve">
<style type="text/css">
	.st0{fill:#231F20;}
</style>
<circle class="st0" cx="23.69" cy="28.16" r="2.57"/>
<circle class="st0" cx="42.83" cy="28.16" r="2.57"/>
<path class="st0" d="M17.56,36.03c0,0,3.4,8.7,16.16,8.7s14.75-8.12,14.75-8.12s-0.41,11.85-14.33,11.85S17.64,39.26,17.56,36.03z"
	/>
<path class="st0" d="M35.95,4.21c0,0-2.73,1.99,1.41,5.05s5.22,2.4,8.04,1.99c0,0,8.86,3.81,11.1,9.36c2.24,5.55,4.39,14,0.66,23.2
	c-3.73,9.2-9.94,14.66-18.14,15.41s-25.43,0.91-28.25-10.77s-4.97-26.1,4.72-34.13s22.87-7.37,22.87-7.37l-1.74-0.91
	c0,0-18.89-1.66-24.19,6.3S4.05,26,5.79,40.34s7.71,24.37,25.77,23.12c18.06-1.25,27.51-11.03,29.58-19.98s4.06-18.31-6.96-30.41
	S35.95,4.21,35.95,4.21z"/>
</svg>
