<?xml version="1.0" encoding="utf-8"?>
<!-- Generator: Adobe Illustrator 27.0.0, SVG Export Plug-In . SVG Version: 6.00 Build 0)  -->
<svg version="1.1" id="Layer_1" xmlns="http://www.w3.org/2000/svg" xmlns:xlink="http://www.w3.org/1999/xlink" x="0px" y="0px"
	 viewBox="0 0 300 72" style="enable-background:new 0 0 300 72;" xml:space="preserve">
<style type="text/css">
	.st0{display:none;fill:none;}
</style>
<g>
	<g>
		<path id="yte-0" d="M199.59,18.85L199.59,18.85c0.67,0,1.22,0.62,1.22,1.39v30.95c0,0.77-0.55,1.39-1.22,1.39l0,0
			c-0.67,0-1.22-0.62-1.22-1.39V20.24C198.37,19.47,198.91,18.85,199.59,18.85z"/>
	</g>
	<g transform="matrix(1,0,0,1,0,23.901836248542693)">
		<g id="textblocktransform">
			<g>
				<g transform="matrix(1,0,0,1,0,0)">
					<path id="text-0" d="M49.19,16.74c-1.26,0-2.2-0.22-2.82-0.65c-0.62-0.43-0.93-0.98-0.93-1.65l0,0V-7.51
						c0-0.59,0.26-1.09,0.78-1.48c0.52-0.4,1.25-0.59,2.19-0.59l0,0h6.08v2.08L53.9-2.86h-2.45l-0.37-4.19
						c-0.02-0.22-0.17-0.33-0.45-0.33l0,0h-1.56c-0.54,0-0.9,0.2-1.05,0.61c-0.16,0.41-0.23,0.99-0.21,1.73l0,0l0.78,18.51
						c0,0.15,0.07,0.22,0.22,0.22l0,0H51c0.27,0,0.42-0.07,0.45-0.22l0,0l0.74-2.89h2.3v6.19h-5.3V16.74z M59.05,17.49V3.65
						l-2.49-4.41v-8.83h2.37l0.5,10.35l1.34,0.11l0.66-10.46h2.08v9.61l-1.97,2.3v15.17H59.05z M67.8,16c-0.54,0-1-0.25-1.37-0.74
						s-0.56-1.2-0.56-2.11l0,0V-7.59l1.34-2h7.9v5.53h-1.59L72.41-7.4h-2.49c-0.99,0-1.51,0.56-1.56,1.67l0,0l0.67,18.39
						c0,0.17,0.08,0.33,0.25,0.46c0.17,0.14,0.35,0.21,0.52,0.21l0,0h2.71c0.17,0,0.34-0.04,0.5-0.13c0.16-0.08,0.24-0.19,0.24-0.31
						l0,0l0.37-7.2l-2.23-0.07V3.54l4.19-0.48v12.95H67.8V16z M79.78-1.51l-0.7-8.09h2.86l-0.26,7.72L79.78-1.51z M85.27,16.74
						v-2.37h4.15l-0.74-7.83l-3.41-0.93V-3.4c0-0.35,0.13-0.68,0.39-0.99c0.26-0.31,0.53-0.46,0.83-0.46l0,0h5.08v1.82L87.3-2.44
						l0.48,6.19l3.78,1v10.16c0,0.42-0.22,0.83-0.65,1.22c-0.44,0.4-0.88,0.59-1.32,0.59l0,0h-4.32V16.74z M100.03,16.74V-8.07
						l-0.82-0.45V-9.6h5.42c0.94,0,1.73,0.18,2.37,0.54s0.96,0.78,0.96,1.28l0,0V2.69c0,0.27-0.09,0.61-0.28,1.02
						c-0.18,0.41-0.56,0.79-1.13,1.14c-0.57,0.36-1.37,0.54-2.41,0.54l0,0h-1.97v11.35H100.03z M103.15,3.21l1.59-0.37
						c0.15-0.05,0.22-0.12,0.22-0.22l0,0l0.37-9.35c-0.02-0.32-0.16-0.6-0.41-0.83c-0.25-0.24-0.63-0.36-1.15-0.36l0,0h-0.63
						c-0.3,0-0.45,0.09-0.45,0.26l0,0V2.91c0,0.07,0.04,0.14,0.13,0.2C102.92,3.17,103.03,3.21,103.15,3.21L103.15,3.21z
						 M112.82,16.74l-2.19-1.56V-8.4l1.59-1.19h5.01l1.48,1.04v23.96l-2.34,1.34h-3.55V16.74z M113.97,14.15h1.56
						c0.22,0,0.33-0.07,0.33-0.22l0,0l0.37-21.25c0-0.22-0.11-0.33-0.33-0.33l0,0h-1.93c-0.22,0-0.33,0.11-0.33,0.33l0,0v21.25
						C113.64,14.07,113.75,14.15,113.97,14.15L113.97,14.15z M127.7,16.85l-0.59-7.27l-2.04-4.38h-1.08v11.54h-2.15V-8.07
						l-0.82-0.45V-9.6h5.79c0.94,0,1.73,0.18,2.36,0.54s0.95,0.78,0.98,1.28l0,0l-0.37,10.27c0,0.37-0.17,0.82-0.5,1.35
						c-0.34,0.53-0.95,0.92-1.84,1.17l0,0l2.19,4.08l0.78,7.64L127.7,16.85z M124.95,2.83h1.97c0.15,0,0.22-0.07,0.22-0.22l0,0
						l0.22-9.38c0-0.35-0.15-0.64-0.46-0.88C126.59-7.88,125.94-8,124.95-8l0,0c-0.3,0.1-0.45,0.25-0.45,0.45l0,0V2.54
						c0,0.07,0.04,0.14,0.13,0.2S124.83,2.83,124.95,2.83L124.95,2.83z M134.82,16V-7.74l-2.56-0.45l0.37-1.41h7.97v2.11h-2.67
						v23.48L134.82,16L134.82,16z M142.68,16.74l0.85-26.34h6.79v3.26h-4.56v7.38h4.04v1.87l-3.86,0.67v13.17h-3.26V16.74z
						 M154.88,16.74l-2.19-1.56V-8.4l1.59-1.19h5.01l1.48,1.04v23.96l-2.34,1.34h-3.55V16.74z M156.03,14.15h1.56
						c0.22,0,0.33-0.07,0.33-0.22l0,0l0.37-21.25c0-0.22-0.11-0.33-0.33-0.33l0,0h-1.93c-0.22,0-0.33,0.11-0.33,0.33l0,0v21.25
						C155.69,14.07,155.81,14.15,156.03,14.15L156.03,14.15z M163.74,16.74V-9.59h3.6l-0.78,23.29l4.19,0.67v2.37
						C170.75,16.74,163.74,16.74,163.74,16.74z M172.98,16.74V-6.1l-0.67-1.78v-1.71h3.75l-0.33,26.34h-2.75V16.74z M181.06,16.74
						l-2.19-1.56V-8.4l1.59-1.19h5.01l1.48,1.04v23.96l-2.34,1.34h-3.55V16.74z M182.21,14.15h1.56c0.22,0,0.33-0.07,0.33-0.22l0,0
						l0.37-21.25c0-0.22-0.11-0.33-0.33-0.33l0,0h-1.93c-0.22,0-0.33,0.11-0.33,0.33l0,0v21.25
						C181.88,14.07,181.99,14.15,182.21,14.15L182.21,14.15z"/>
				</g>
			</g>
			<g transform="matrix(1,0,0,1,163.31020800000002,93.52508622893083)">
				<g transform="matrix(1,0,0,1,0,0)">
					<path id="text-1" d="M-57.34-64.64l1.27-2.33h1.18l-1.48,2.55c1,0.27,1.5,1.08,1.5,2.43l0,0v0.88h-1.07V-62
						c0-0.54-0.16-0.97-0.48-1.26c-0.32-0.3-0.78-0.44-1.37-0.44l0,0c-0.19,0-0.38,0.01-0.57,0.04l0,0v2.56h-1.07v-8.53h1.07v5.01
						C-58.02-64.69-57.68-64.69-57.34-64.64L-57.34-64.64z M-50.72-67.09L-50.72-67.09c1.38,0.06,2.07,0.63,2.07,1.72l0,0
						c0,1.36-0.89,2.04-2.67,2.04l0,0h-0.5v-0.94h0.59c0.54,0,0.92-0.08,1.13-0.25c0.21-0.17,0.32-0.44,0.32-0.83l0,0
						c0-0.25-0.09-0.44-0.28-0.57s-0.43-0.19-0.72-0.19l0,0c-0.58,0-1.03,0.2-1.36,0.61s-0.49,0.89-0.49,1.46l0,0
						c0,0.6,0.18,1.09,0.53,1.46s0.82,0.56,1.38,0.56l0,0c0.51,0,0.93-0.13,1.26-0.38l0,0l0.73,0.72c-0.56,0.46-1.22,0.68-1.99,0.68
						l0,0c-0.93,0-1.67-0.27-2.22-0.82c-0.55-0.54-0.83-1.25-0.83-2.11l0,0c0-0.96,0.27-1.74,0.82-2.33S-51.66-67.12-50.72-67.09z
						 M-44.56-67.09L-44.56-67.09c1.38,0.06,2.07,0.63,2.07,1.72l0,0c0,1.36-0.89,2.04-2.67,2.04l0,0h-0.5v-0.94h0.59
						c0.54,0,0.92-0.08,1.13-0.25c0.21-0.17,0.31-0.44,0.31-0.83l0,0c0-0.25-0.09-0.44-0.28-0.57s-0.43-0.19-0.72-0.19l0,0
						c-0.58,0-1.03,0.2-1.36,0.61s-0.49,0.89-0.49,1.46l0,0c0,0.6,0.18,1.09,0.53,1.46s0.82,0.56,1.38,0.56l0,0
						c0.51,0,0.93-0.13,1.26-0.38l0,0l0.73,0.72C-43.14-61.22-43.8-61-44.57-61l0,0c-0.93,0-1.67-0.27-2.22-0.82
						c-0.55-0.54-0.83-1.25-0.83-2.11l0,0c0-0.96,0.27-1.74,0.82-2.33C-46.25-66.84-45.5-67.12-44.56-67.09z M-40.17-58.33h-1.1
						v-5.71c0-0.42,0.08-0.82,0.23-1.19c0.15-0.37,0.37-0.7,0.63-0.97c0.27-0.27,0.59-0.49,0.95-0.65c0.37-0.16,0.76-0.24,1.17-0.24
						l0,0c0.41,0,0.8,0.08,1.17,0.24c0.36,0.16,0.68,0.38,0.95,0.65c0.27,0.28,0.48,0.6,0.64,0.97c0.15,0.37,0.23,0.77,0.23,1.19
						l0,0c0,0.42-0.07,0.82-0.22,1.19s-0.36,0.69-0.63,0.97c-0.27,0.28-0.59,0.49-0.95,0.65c-0.37,0.16-0.76,0.24-1.18,0.24l0,0
						c-0.52,0-1-0.12-1.45-0.37l0,0v-1.1c0.4,0.29,0.87,0.44,1.41,0.44l0,0c0.29,0,0.56-0.05,0.8-0.15c0.24-0.1,0.44-0.24,0.61-0.42
						c0.17-0.18,0.29-0.39,0.38-0.64s0.13-0.52,0.13-0.81l0,0c0-0.29-0.04-0.56-0.13-0.81s-0.22-0.46-0.38-0.64
						s-0.36-0.32-0.59-0.42s-0.49-0.15-0.79-0.15l0,0c-0.28,0-0.54,0.05-0.77,0.15s-0.43,0.24-0.6,0.41
						c-0.17,0.18-0.3,0.39-0.39,0.64s-0.13,0.52-0.13,0.82l0,0v5.71H-40.17z M-31.11-61.11v-5.85h5.38c0.58,0,1.04,0.11,1.38,0.33
						l0,0c0.35,0.22,0.58,0.5,0.69,0.85s0.17,0.77,0.17,1.26l0,0v3.41h-1.07v-3.41c0-0.63-0.19-1.05-0.57-1.26l0,0
						c-0.2-0.11-0.59-0.16-1.18-0.16l0,0h-0.5v4.83h-1.07v-4.83h-2.13v4.83C-30.01-61.11-31.11-61.11-31.11-61.11z M-21.37-66.2
						L-21.37-66.2c0.57-0.59,1.28-0.89,2.13-0.89l0,0c0.41,0,0.8,0.08,1.16,0.24c0.36,0.16,0.68,0.38,0.95,0.65
						c0.27,0.28,0.49,0.6,0.64,0.97s0.23,0.77,0.23,1.19l0,0c0,0.42-0.08,0.82-0.23,1.19s-0.36,0.69-0.63,0.97
						c-0.27,0.28-0.59,0.49-0.95,0.65c-0.37,0.16-0.76,0.24-1.18,0.24l0,0c-0.43,0-0.83-0.08-1.19-0.24s-0.68-0.37-0.94-0.65
						c-0.27-0.28-0.48-0.6-0.63-0.97c-0.15-0.37-0.22-0.76-0.22-1.19l0,0C-22.23-64.9-21.94-65.62-21.37-66.2z M-19.24-66.06
						L-19.24-66.06c-0.57,0-1.03,0.19-1.37,0.56c-0.34,0.37-0.52,0.86-0.52,1.46c0,0.6,0.17,1.09,0.52,1.46s0.8,0.56,1.37,0.56l0,0
						c0.58,0,1.04-0.19,1.38-0.57c0.34-0.38,0.51-0.86,0.51-1.46c0-0.59-0.17-1.08-0.51-1.46C-18.2-65.87-18.66-66.06-19.24-66.06z
						 M-14.08-61.11h-1.07v-3.33c0-0.93,0.17-1.58,0.52-1.94l0,0c0.17-0.18,0.38-0.31,0.62-0.4c0.24-0.09,0.46-0.14,0.64-0.16
						c0.18-0.02,0.43-0.02,0.75-0.02l0,0h1.07v1.02h-1.29c-0.16,0-0.29,0-0.38,0.01s-0.2,0.04-0.32,0.09
						c-0.12,0.05-0.23,0.13-0.32,0.23l0,0c-0.15,0.2-0.23,0.59-0.23,1.17l0,0L-14.08-61.11L-14.08-61.11z M-7.89-67.09L-7.89-67.09
						c1.38,0.06,2.07,0.63,2.07,1.72l0,0c0,1.36-0.89,2.04-2.67,2.04l0,0h-0.5v-0.94h0.59c0.54,0,0.92-0.08,1.13-0.25
						s0.32-0.44,0.32-0.83l0,0c0-0.25-0.09-0.44-0.28-0.57s-0.43-0.19-0.72-0.19l0,0c-0.58,0-1.03,0.2-1.36,0.61
						s-0.49,0.89-0.49,1.46l0,0c0,0.6,0.18,1.09,0.53,1.46c0.35,0.37,0.81,0.56,1.38,0.56l0,0c0.51,0,0.93-0.13,1.26-0.38l0,0
						l0.73,0.72C-6.46-61.22-7.12-61-7.89-61l0,0c-0.93,0-1.67-0.27-2.22-0.82c-0.55-0.54-0.83-1.25-0.83-2.11l0,0
						c0-0.96,0.27-1.74,0.82-2.33C-9.58-66.84-8.83-67.12-7.89-67.09z M2.81-62.14v-7.51h1.1v8.53H1.05c-0.89,0-1.61-0.28-2.16-0.85
						c-0.55-0.56-0.83-1.28-0.83-2.14l0,0c0-0.85,0.29-1.55,0.86-2.13c0.57-0.56,1.25-0.85,2.04-0.85l0,0c0.5,0,0.98,0.12,1.41,0.37
						l0,0v1.1c-0.41-0.29-0.88-0.44-1.41-0.44l0,0c-0.49,0-0.9,0.18-1.24,0.54s-0.5,0.83-0.5,1.42l0,0c0,0.59,0.16,1.07,0.48,1.43
						s0.77,0.54,1.35,0.54l0,0L2.81-62.14L2.81-62.14z M8.24-67.09L8.24-67.09c1.38,0.06,2.07,0.63,2.07,1.72l0,0
						c0,1.36-0.89,2.04-2.67,2.04l0,0h-0.5v-0.94h0.59c0.54,0,0.92-0.08,1.13-0.25s0.32-0.44,0.32-0.83l0,0
						c0-0.25-0.09-0.44-0.28-0.57s-0.43-0.19-0.72-0.19l0,0c-0.58,0-1.03,0.2-1.36,0.61c-0.33,0.41-0.49,0.89-0.49,1.46l0,0
						c0,0.6,0.18,1.09,0.53,1.46c0.35,0.37,0.81,0.56,1.38,0.56l0,0c0.51,0,0.93-0.13,1.26-0.38l0,0l0.73,0.72
						C9.67-61.22,9.01-61,8.24-61l0,0c-0.93,0-1.67-0.27-2.22-0.82c-0.55-0.54-0.83-1.25-0.83-2.11l0,0c0-0.96,0.27-1.74,0.82-2.33
						S7.29-67.12,8.24-67.09z M14.39-67.09L14.39-67.09c1.38,0.06,2.07,0.63,2.07,1.72l0,0c0,1.36-0.89,2.04-2.67,2.04l0,0h-0.5
						v-0.94h0.59c0.54,0,0.92-0.08,1.13-0.25s0.32-0.44,0.32-0.83l0,0c0-0.25-0.09-0.44-0.28-0.57c-0.19-0.13-0.43-0.19-0.72-0.19
						l0,0c-0.58,0-1.03,0.2-1.36,0.61s-0.49,0.89-0.49,1.46l0,0c0,0.6,0.18,1.09,0.53,1.46c0.35,0.37,0.81,0.56,1.38,0.56l0,0
						c0.51,0,0.93-0.13,1.26-0.38l0,0l0.73,0.72C15.82-61.22,15.16-61,14.39-61l0,0c-0.93,0-1.67-0.27-2.22-0.82
						c-0.55-0.54-0.83-1.25-0.83-2.11l0,0c0-0.96,0.27-1.74,0.82-2.33C12.71-66.84,13.45-67.12,14.39-67.09z M18.78-58.33h-1.1
						v-5.71c0-0.42,0.08-0.82,0.23-1.19s0.37-0.7,0.63-0.97c0.27-0.27,0.59-0.49,0.95-0.65c0.37-0.16,0.76-0.24,1.17-0.24l0,0
						c0.41,0,0.8,0.08,1.16,0.24c0.36,0.16,0.68,0.38,0.95,0.65c0.27,0.28,0.49,0.6,0.64,0.97s0.23,0.77,0.23,1.19l0,0
						c0,0.42-0.08,0.82-0.23,1.19s-0.36,0.69-0.63,0.97c-0.27,0.28-0.59,0.49-0.95,0.65c-0.37,0.16-0.76,0.24-1.18,0.24l0,0
						c-0.52,0-1-0.12-1.45-0.37l0,0v-1.1c0.4,0.29,0.87,0.44,1.41,0.44l0,0c0.29,0,0.56-0.05,0.8-0.15c0.24-0.1,0.44-0.24,0.61-0.42
						c0.17-0.18,0.3-0.39,0.39-0.64s0.13-0.52,0.13-0.81l0,0c0-0.29-0.04-0.56-0.13-0.81c-0.09-0.25-0.22-0.46-0.38-0.64
						s-0.36-0.32-0.59-0.42s-0.49-0.15-0.79-0.15l0,0c-0.28,0-0.54,0.05-0.78,0.15c-0.23,0.1-0.43,0.24-0.6,0.41
						c-0.17,0.18-0.29,0.39-0.38,0.64c-0.09,0.25-0.13,0.52-0.13,0.82l0,0v5.71H18.78z"/>
				</g>
			</g>
		</g>
	</g>
	<g transform="matrix(1,0,0,1,438.06774407655854,0)">
		<g>
			<g>
				<path d="M-182.6,19.95l-6.95-6.96c-0.41-0.41-1.15-0.41-1.56,0l-4.32,4.32c-0.34-1.17-1.4-2.02-2.67-2.02h-26.17
					c-1.55,0-2.8,1.25-2.8,2.8v20.84c0,1.55,1.25,2.8,2.8,2.8h4.49l-1.35,1.35c-0.01,0.01-0.01,0.01-0.01,0.01l-0.03,0.03
					c-0.03,0.03-0.06,0.08-0.09,0.11c-0.03,0.05-0.07,0.09-0.1,0.15c-0.03,0.04-0.05,0.09-0.06,0.14c-0.01,0.01-0.01,0.03-0.02,0.04
					l-3.48,10.43c-0.19,0.58,0.12,1.2,0.7,1.4c0.23,0.08,0.47,0.08,0.7,0l10.43-3.47c0.01,0,0.02-0.01,0.03-0.01
					c0.08-0.03,0.15-0.06,0.21-0.1c0.01,0,0.01-0.01,0.01-0.01c0.06-0.04,0.12-0.09,0.18-0.15l9.9-9.9h4.66c1.54,0,2.8-1.26,2.8-2.8
					v-4.66l6.72-6.73c0.07-0.07,0.12-0.15,0.17-0.22l5.83-5.83C-182.16,21.07-182.16,20.38-182.6,19.95L-182.6,19.95 M-197.52,38.94
					c0,0.32-0.26,0.59-0.59,0.59h-2.45l3.04-3.05L-197.52,38.94L-197.52,38.94z M-196.39,21.44l1.99,1.99l-22.45,22.46l-1.99-1.99
					L-196.39,21.44z M-224.88,38.94V18.09c0-0.32,0.26-0.59,0.59-0.59h26.17c0.32,0,0.59,0.26,0.59,0.59l0,0v1.32l-20.07,20.12
					h-6.69C-224.61,39.53-224.88,39.26-224.88,38.94 M-222.13,52.59l2.22-6.65l4.44,4.44L-222.13,52.59z M-197.19,33.04
					L-197.19,33.04l-1.2,1.2l-15.05,15.05l-1.84-1.84l22.45-22.46l1.84,1.84L-197.19,33.04z M-189.4,25.18l-5.4-5.4l4.46-4.46
					l5.4,5.4L-189.4,25.18z"/>
				<path d="M-216.82,23.85c0-0.29-0.12-0.57-0.32-0.78l-2.65-2.65c-0.44-0.42-1.14-0.41-1.56,0.03c-0.41,0.43-0.41,1.1,0,1.53
					l1.87,1.87l-1.87,1.87c-0.43,0.43-0.43,1.13,0,1.56l0,0c0.43,0.43,1.13,0.44,1.55,0.01c0,0,0,0,0.01-0.01l2.65-2.65
					C-216.94,24.42-216.82,24.15-216.82,23.85"/>
				<path d="M-215.21,27.61h3.16c0.61,0,1.11-0.49,1.11-1.11c0-0.61-0.49-1.11-1.11-1.11h-3.16c-0.61,0.01-1.09,0.52-1.08,1.13
					C-216.28,27.12-215.81,27.6-215.21,27.61"/>
			</g>
		</g>
	</g>
</g>
<rect x="45.43" y="5.76" class="st0" width="221.63" height="61.89"/>
</svg>
