<?xml version="1.0" encoding="utf-8"?><!-- Uploaded to: SVG Repo, www.svgrepo.com, Generator: SVG Repo Mixer Tools -->
<svg fill="#000000" width="800px" height="800px" viewBox="0 0 24 24" id="font-square" data-name="Flat Color" xmlns="http://www.w3.org/2000/svg" class="icon flat-color"><rect id="primary" x="2" y="2" width="20" height="20" rx="2" style="fill: rgb(0, 0, 0);"></rect><path id="secondary" d="M17.16,16,12.91,6.59a1,1,0,0,0-1.82,0L6.84,16A1,1,0,0,0,6,17a1,1,0,0,0,1,1H9a1,1,0,0,0,0-2l.46-1h5L15,16a1,1,0,0,0,0,2h2a1,1,0,0,0,1-1A1,1,0,0,0,17.16,16ZM10.4,13,12,9.44,13.6,13Z" style="fill: rgb(44, 169, 188);"></path></svg>