<?xml version="1.0" encoding="utf-8"?>
<!-- Generator: Adobe Illustrator 27.0.0, SVG Export Plug-In . SVG Version: 6.00 Build 0)  -->
<svg version="1.1" id="Layer_1" xmlns="http://www.w3.org/2000/svg" xmlns:xlink="http://www.w3.org/1999/xlink" x="0px" y="0px"
	 viewBox="0 0 800 800" style="enable-background:new 0 0 800 800;" xml:space="preserve">
<style type="text/css">
	.st0{fill:#FFFFFF;}
</style>
<path class="st0" d="M733.3,266.6C733.3,266.6,733.3,266.6,733.3,266.6c0-33.3,0-57.4-10.9-78.7c-9.7-18.9-24.8-34-43.7-43.7
	c-21.4-10.9-44.1-10.9-85.4-10.9H206.7c-41.3,0-64,0-85.4,10.9c-18.9,9.6-34,24.8-43.7,43.7c-10.9,21.3-10.9,45.4-10.9,78.7
	c0,0,0,0,0,0l0,260c0,41.3,0,64,10.9,85.4c9.6,18.9,24.8,34,43.7,43.7c21.4,10.9,44.1,10.9,85.4,10.9h386.7c41.3,0,64,0,85.4-10.9
	c18.9-9.6,34-24.8,43.7-43.7c10.9-21.4,10.9-44.1,10.9-85.4L733.3,266.6z M151.5,203.6c7.1-3.6,26.2-3.6,55.1-3.6h386.7
	c28.9,0,48,0,55.1,3.6c6.3,3.2,11.3,8.3,14.6,14.6c2.5,4.9,3.3,15.4,3.5,30.7L512.8,351.4l-72.2,48.1c-16.9,11.3-27.1,18-32.9,19.4
	c-1.3,0.3-2.6,0.5-3.9,0.7c-3.9,0.5-7.9,0.2-11.7-0.7c-5.8-1.4-16-8.2-32.9-19.5L133.4,248.9c0.2-15.3,1-25.8,3.5-30.7
	C140.2,211.9,145.2,206.8,151.5,203.6z M133.3,526.7V329l25.8,17.2l91.5,61L133.4,547.8C133.3,541.5,133.3,534.4,133.3,526.7z
	 M593.3,600H206.7c-11.5,0-21.5,0-29.8-0.2l129.5-155.4l15.9,10.6c23.9,15.9,37,24.7,54.3,28.8c7.6,1.8,15.5,2.7,23.3,2.7
	c2.8,0,5.6-0.1,8.4-0.4c0.1,0,0.3,0,0.4,0c0.2,0,0.3,0,0.5,0c4.7-0.4,9.4-1.2,14-2.3c17.3-4.2,30.5-12.9,54.3-28.8l0,0
	c0,0,0,0,0.1,0l15.9-10.6l129.5,155.4C614.8,600,604.9,600,593.3,600z M666.6,547.8L549.4,407.2l7.2-4.8L666.7,329v197.7
	C666.7,534.5,666.7,541.5,666.6,547.8z"/>
</svg>
