<?xml version="1.0" encoding="utf-8"?>
<!-- Generator: Adobe Illustrator 27.0.0, SVG Export Plug-In . SVG Version: 6.00 Build 0)  -->
<svg version="1.1" id="Layer_1" xmlns="http://www.w3.org/2000/svg" xmlns:xlink="http://www.w3.org/1999/xlink" x="0px" y="0px"
	 viewBox="0 0 70 70" style="enable-background:new 0 0 70 70;" xml:space="preserve">
<style type="text/css">
	.st0{fill:#231F20;}
</style>
<g>
	<path class="st0" d="M22.17,28.5c0.69,0.76,1.21,1.68,1.58,2.78c0.37,1.1,0.55,2.34,0.55,3.73c0,1.39-0.19,2.63-0.56,3.73
		c-0.37,1.1-0.9,2.02-1.57,2.75c-0.7,0.76-1.52,1.34-2.46,1.72c-0.95,0.39-2.03,0.58-3.25,0.58c-1.19,0-2.26-0.2-3.24-0.59
		c-0.97-0.39-1.8-0.96-2.48-1.71c-0.68-0.75-1.2-1.67-1.57-2.75c-0.37-1.09-0.55-2.33-0.55-3.73c0-1.37,0.18-2.61,0.54-3.7
		c0.36-1.09,0.89-2.03,1.59-2.8c0.66-0.74,1.49-1.31,2.48-1.7c0.99-0.39,2.06-0.59,3.22-0.59c1.21,0,2.29,0.2,3.26,0.59
		C20.68,27.2,21.49,27.77,22.17,28.5z M21.96,35.01c0-2.19-0.49-3.88-1.47-5.07c-0.98-1.19-2.32-1.78-4.02-1.78
		c-1.71,0-3.06,0.59-4.04,1.78c-0.98,1.19-1.47,2.88-1.47,5.07c0,2.21,0.5,3.91,1.5,5.08c1,1.17,2.33,1.76,4.01,1.76
		c1.68,0,3.01-0.59,4.01-1.76C21.47,38.91,21.96,37.22,21.96,35.01z"/>
	<path class="st0" d="M36.91,30.78l-5.12,12.66h-2.14l-5.09-12.66h2.31l3.92,10.07l3.89-10.07H36.91z"/>
	<path class="st0" d="M48.38,37.33h-9.33c0,0.78,0.12,1.46,0.35,2.03c0.23,0.58,0.56,1.05,0.96,1.42c0.39,0.36,0.86,0.63,1.4,0.82
		c0.54,0.18,1.13,0.27,1.78,0.27c0.86,0,1.73-0.17,2.6-0.52c0.87-0.34,1.49-0.68,1.86-1.01h0.11v2.32c-0.72,0.3-1.45,0.56-2.2,0.76
		c-0.75,0.2-1.53,0.31-2.36,0.31c-2.1,0-3.74-0.57-4.92-1.71c-1.18-1.14-1.77-2.75-1.77-4.84c0-2.07,0.56-3.71,1.69-4.93
		c1.13-1.22,2.62-1.82,4.46-1.82c1.71,0,3.02,0.5,3.95,1.5c0.93,1,1.39,2.41,1.39,4.25V37.33z M46.3,35.7
		c-0.01-1.12-0.29-1.98-0.84-2.6c-0.56-0.61-1.4-0.92-2.53-0.92c-1.14,0-2.05,0.34-2.73,1.01c-0.68,0.67-1.06,1.51-1.15,2.5H46.3z"
		/>
	<path class="st0" d="M60.47,43.44h-2.13v-7.21c0-0.58-0.03-1.13-0.1-1.64c-0.07-0.51-0.19-0.91-0.37-1.2
		c-0.19-0.32-0.46-0.55-0.82-0.71c-0.36-0.15-0.82-0.23-1.38-0.23c-0.58,0-1.19,0.14-1.82,0.43c-0.63,0.29-1.24,0.65-1.82,1.1v9.45
		h-2.13V30.78h2.13v1.41c0.66-0.55,1.35-0.98,2.06-1.29c0.71-0.31,1.44-0.46,2.19-0.46c1.37,0,2.41,0.41,3.13,1.24
		c0.72,0.82,1.08,2.01,1.08,3.56V43.44z"/>
</g>
</svg>
